<?xml version="1.0" encoding="UTF-8" standalone="no"?>
<svg
   xmlns:dc="http://purl.org/dc/elements/1.1/"
   xmlns:cc="http://creativecommons.org/ns#"
   xmlns:rdf="http://www.w3.org/1999/02/22-rdf-syntax-ns#"
   xmlns:svg="http://www.w3.org/2000/svg"
   xmlns="http://www.w3.org/2000/svg"
   viewBox="0 0 596.82666 651.08002"
   height="651.08002"
   width="596.82666"
   xml:space="preserve"
   id="svg2"
   version="1.1"><metadata
     id="metadata8"><rdf:RDF><cc:Work
         rdf:about=""><dc:format>image/svg+xml</dc:format><dc:type
           rdf:resource="http://purl.org/dc/dcmitype/StillImage" /></cc:Work></rdf:RDF></metadata><defs
     id="defs6" /><g
     transform="matrix(1.3333333,0,0,-1.3333333,0,651.08)"
     id="g10"><g
       transform="scale(0.1)"
       id="g12"><path
         id="path14"
         style="fill:#231f20;fill-opacity:1;fill-rule:nonzero;stroke:none"
         d="M 0,1627.7 1627.7,0 V 1627.7 Z M 2441.54,0 V 1627.7 H 2034.61 V 0 Z m 406.92,0 H 4476.17 L 3662.31,813.859 Z M 3662.31,2441.55 2848.46,1627.7 H 4476.17 Z M 2848.46,1627.7 V 3255.39 H 3255.4 L 1627.7,4883.09 V 3255.39 H 1220.77 813.844 V 2848.48 H 1627.7 V 1627.7 h 406.91 v 1220.78 406.91 h 406.93 V 1627.7 Z M 813.844,2034.62 c 0,224.75 -182.184,406.93 -406.93,406.93 V 1627.7 c 224.746,0 406.93,182.19 406.93,406.92 z M 0,2848.48 c 0,-224.74 182.184,-406.93 406.914,-406.93 v 813.84 C 182.184,3255.39 0,3073.21 0,2848.48 Z m 2848.46,1627.68 c 0,224.75 -182.18,406.93 -406.92,406.93 v -813.84 c 224.74,0 406.92,182.18 406.92,406.91 z M 1220.77,4069.25 H 406.914 L 1220.77,3255.39 Z M 406.914,4883.09 H 0 v -1627.7 h 406.914 v 813.86 z M 3865.78,3255.39 h -406.93 v 1627.7 h 406.93 v -1627.7" /></g></g></svg>