<svg style="position: absolute; width: 0; height: 0; overflow: hidden;" version="1.1" xmlns="http://www.w3.org/2000/svg" xmlns:xlink="http://www.w3.org/1999/xlink">
<defs>
<!-- social icons -->
<symbol id="icon-px" viewBox="0 0 28 32">
<path d="M6.456 21.519c-0.406-0.887-0.431-1.144 0.463-1.444 1.6-0.5 0.5 0.575 2.7 3.075h0.019v-5.869c0.075-3.137 2.75-5.762 6.106-5.762 3.369 0 6.106 2.719 6.106 6.050 0 3.962-3.8 7.075-8.031 5.831-0.656-0.262-0.131-1.981 0.531-1.788 3.313 0 5.587-0.631 5.587-4.025 0-3.813-4.819-5.6-7.306-2.787-1.469 1.65-1.1 2.631-1.1 9.85 3.169 1.938 7.394 1.375 10.025-1.256 1.55-1.55 2.406-3.625 2.406-5.813 0-2.2-0.863-4.262-2.425-5.831-1.55-1.55-3.613-2.406-5.831-2.406s-4.3 0.863-5.844 2.406c-0.019 0.019-1 1.031-1.325 1.494l-0.031 0.037c-0.206 0.294-0.394 0.569-1.256 0.381-0.431-0.106-0.894-0.363-0.894-0.738v-11.675c0-0.313 0.244-0.656 0.656-0.656h15.081c0.519 0 0.519 0.725 0.519 0.944 0 0.244 0 0.944-0.519 0.944h-13.95v8.306h0.019c6.512-6.862 17.675-2.25 17.675 6.806 0 11.131-15.3 13.769-19.381 3.925zM10.412 5.219c-0.031 0.263 0.287 1.531 0.912 1.287 7.8-2.969 12.675 2.525 13.088 2.525 0.3 0 1.425-0.956 0.894-1.425-5.825-5.563-14.656-3.563-14.894-2.388zM24.563 25.919c-6.875 6.869-18.688 3.8-20.75-6.512 0-0.762-1.9-0.462-1.806 0.206 1.5 10.838 15.375 16.056 23.85 7.581 0.431-0.488-0.788-1.775-1.294-1.275zM13.35 19.163c0 0.25 0.269 0.456 0.344 0.531 0.188 0.188 0.381 0.275 0.531 0.275 0.238 0 0.162 0.012 1.394-1.219 1.225 1.206 1.194 1.219 1.394 1.219 0.337 0 1.156-0.65 0.669-1.137l-1.081-1.081 1.137-1.137c0.394-0.425-0.631-1.363-1.012-0.981l-1.119 1.119c-1.162-1.175-1.15-1.219-1.344-1.219-0.313 0-1.125 0.731-0.775 1.081l1.137 1.137c-1.131 1.119-1.275 1.2-1.275 1.413z"></path>
</symbol>
<symbol id="icon-amazon" viewBox="0 0 28 32">
<path d="M16.075 10.169c-3.044 0.113-10.594 0.969-10.594 7.344 0 6.844 8.644 7.125 11.469 2.7 0.406 0.637 2.212 2.344 2.831 2.925l3.55-3.5s-2.019-1.581-2.019-3.3v-9.194c0-1.581-1.531-5.144-7.019-5.144-5.5 0-8.419 3.438-8.419 6.519l4.594 0.425c1.019-3.094 3.387-3.094 3.387-3.094 2.544-0.006 2.219 1.862 2.219 4.319zM16.075 15.594c0 5-5.262 4.25-5.262 1.075 0-2.95 3.156-3.544 5.262-3.613v2.537zM24.575 25.813c-0.481 0.625-4.375 4.188-10.906 4.188s-11.531-4.469-13.063-6.313c-0.425-0.481 0.063-0.706 0.344-0.519 4.581 2.781 11.738 7.363 23.281 1.894 0.469-0.231 0.831 0.125 0.344 0.75zM27.063 25.95c-0.406 0.988-1 1.675-1.325 1.938-0.344 0.281-0.594 0.169-0.406-0.238s1.206-2.906 0.794-3.438c-0.406-0.519-2.313-0.269-3-0.2-0.675 0.063-0.813 0.125-0.875-0.019-0.144-0.356 1.356-0.969 2.344-1.094 0.981-0.113 2.563-0.050 2.875 0.356 0.231 0.319 0 1.694-0.406 2.694z"></path>
</symbol>
<symbol id="icon-app-store" viewBox="0 0 32 32">
<path d="M15.994 7.556l0.569-0.981c0.35-0.612 1.131-0.819 1.744-0.469s0.819 1.131 0.469 1.744l-5.469 9.469h3.956c1.281 0 2 1.506 1.444 2.55h-11.594c-0.706 0-1.275-0.569-1.275-1.275s0.569-1.275 1.275-1.275h3.25l4.162-7.213-1.3-2.256c-0.35-0.612-0.144-1.388 0.469-1.744 0.613-0.35 1.387-0.144 1.744 0.469l0.556 0.981zM11.075 21.181l-1.225 2.125c-0.35 0.613-1.131 0.819-1.744 0.469s-0.819-1.131-0.469-1.744l0.912-1.575c1.025-0.319 1.863-0.075 2.525 0.725zM21.631 17.325h3.319c0.706 0 1.275 0.569 1.275 1.275s-0.569 1.275-1.275 1.275h-1.844l1.244 2.156c0.35 0.613 0.144 1.387-0.469 1.744-0.613 0.35-1.387 0.144-1.744-0.469-2.094-3.631-3.669-6.35-4.712-8.162-1.069-1.844-0.306-3.694 0.45-4.319 0.837 1.438 2.087 3.606 3.756 6.5zM16 0.5c-8.563 0-15.5 6.938-15.5 15.5s6.938 15.5 15.5 15.5 15.5-6.938 15.5-15.5-6.938-15.5-15.5-15.5zM29.5 16c0 7.419-6.006 13.5-13.5 13.5-7.419 0-13.5-6.006-13.5-13.5 0-7.419 6.006-13.5 13.5-13.5 7.419 0 13.5 6.006 13.5 13.5z"></path>
</symbol>
<symbol id="icon-behance" viewBox="0 0 36 32">
<path d="M14.5 14.825c1.988-0.95 3.025-2.387 3.025-4.625 0-4.412-3.287-5.487-7.081-5.487h-10.444v22.15h10.738c4.025 0 7.806-1.931 7.806-6.431 0-2.781-1.319-4.838-4.044-5.606zM4.869 8.494h4.569c1.756 0 3.338 0.494 3.338 2.531 0 1.881-1.231 2.638-2.969 2.638h-4.938v-5.169zM10.075 23.1h-5.206v-6.1h5.306c2.144 0 3.5 0.894 3.5 3.163 0 2.238-1.619 2.938-3.6 2.938zM32.481 8.056h-8.981v-2.181h8.981v2.181zM36 19.075c0-4.744-2.775-8.7-7.806-8.7-4.887 0-8.206 3.675-8.206 8.488 0 4.994 3.144 8.419 8.206 8.419 3.831 0 6.313-1.725 7.506-5.394h-3.887c-0.419 1.369-2.144 2.094-3.481 2.094-2.581 0-3.938-1.512-3.938-4.081h11.569c0.019-0.262 0.038-0.544 0.038-0.825zM24.4 17.125c0.144-2.106 1.544-3.425 3.656-3.425 2.212 0 3.325 1.3 3.512 3.425h-7.169z"></path>
</symbol>
<symbol id="icon-bitbucket" viewBox="0 0 32 32">
<path d="M1.444 2c-0.556-0.006-1.006 0.431-1.012 0.987 0 0.056 0.006 0.112 0.013 0.175l4.237 25.712c0.106 0.65 0.669 1.125 1.325 1.131h20.319c0.494 0.006 0.919-0.35 1-0.837l4.238-26c0.087-0.544-0.281-1.056-0.825-1.144-0.056-0.006-0.113-0.013-0.175-0.013l-29.119-0.013zM19.275 20.581h-6.488l-1.756-9.175h9.813l-1.569 9.175z"></path>
</symbol>
<symbol id="icon-blogger" viewBox="0 0 28 32">
<path d="M27.913 13.919c-0.113-0.5-0.425-0.963-0.781-1.156-0.113-0.063-0.813-0.137-1.563-0.169-1.256-0.056-1.394-0.081-1.794-0.313-0.631-0.369-0.8-0.769-0.806-1.844-0.006-2.063-0.863-3.981-2.556-5.706-1.206-1.231-2.556-2.063-4.094-2.531-0.369-0.112-1.194-0.15-3.956-0.181-4.338-0.050-5.3 0.038-6.775 0.625-2.719 1.075-4.669 3.362-5.381 6.287-0.131 0.55-0.163 1.431-0.194 6.494-0.037 6.344 0.006 7.275 0.4 8.531 0.975 3.1 3.744 5.394 6.525 5.894 0.925 0.169 12.331 0.206 13.5 0.050 2.031-0.275 3.625-1.094 5.119-2.619 1.081-1.106 1.756-2.3 2.2-3.881 0.306-1.1 0.281-8.925 0.156-9.481zM7.781 9.944c0.488-0.494 0.625-0.512 3.675-0.512 2.744 0 2.838 0.006 3.238 0.213 0.581 0.294 0.838 0.706 0.838 1.369 0 0.594-0.238 1.012-0.769 1.35-0.287 0.181-0.456 0.194-3.144 0.206-1.656 0.012-2.981-0.025-3.175-0.075-1.037-0.294-1.425-1.781-0.662-2.55zM19.769 22.431l-0.931 0.15-4.844 0.056c-4.256 0.050-5.456-0.025-5.681-0.125-0.444-0.194-0.862-0.731-0.931-1.212-0.069-0.456 0.162-1.081 0.513-1.4 0.444-0.4 0.638-0.413 6.081-0.419 5.6-0.006 5.569-0.006 6.1 0.488 0.756 0.706 0.594 1.95-0.306 2.462z"></path>
</symbol>
<symbol id="icon-buysellads" viewBox="0 0 28 32">
<path d="M14 9.419l2.681 10.044h-5.363l2.681-10.044zM28 5v22c0 1.656-1.344 3-3 3h-22c-1.656 0-3-1.344-3-3v-22c0-1.656 1.344-3 3-3h22c1.656 0 3 1.344 3 3zM23.919 25.331l-5.906-18.669h-8.025l-5.906 18.669h5.669l6.981-5.725 1.512 5.725h5.675z"></path>
</symbol>
<symbol id="icon-cc-amex" viewBox="0 0 36 32">
<path d="M36 15.963c-2.369-0.012-2.763-0.056-3.406 0.312v-0.313c-2.831 0-3.344-0.106-4.056 0.325v-0.325h-4.887v0.319c-0.712-0.406-1.337-0.319-4.731-0.319v0.35c-0.394-0.231-0.906-0.35-1.519-0.35h-3.625c-0.219 0.237-0.781 0.856-0.981 1.075-0.794-0.881-0.656-0.725-0.969-1.075h-5.194v5.769h5.125c0.206-0.219 0.806-0.869 1.006-1.087 0.794 0.894 0.644 0.731 0.963 1.087h3.056c0-0.919 0.006-0.519 0.006-1.438 0.719 0.012 1.519-0.012 2.144-0.387 0 0.869-0.006 1.069-0.006 1.825h2.475c0-1.156 0.006-0.462 0.006-1.581 0.387 0 0.481 0 0.587 0.006 0.006 0.081 0 0 0 1.575 9.55 0 9.119 0.069 9.794-0.281v0.281c2.175 0 3.425 0.137 4.219-0.381v5.65c0 1.656-1.344 3-3 3h-30.006c-1.656 0-3-1.344-3-3v-12.731h1.663c0.262-0.631 0.137-0.331 0.4-0.956h1.2c0.263 0.625 0.138 0.325 0.4 0.956h3.306v-0.713c0.138 0.313 0.069 0.156 0.319 0.713h1.844c0.15-0.344 0.162-0.363 0.319-0.713v0.713h8.469v-1.569c0.4 0 0.5-0.006 0.613 0.012 0 0-0.012 0.681 0.006 1.55h4.156v-0.556c0.462 0.369 1.087 0.556 1.856 0.556h1.675c0.262-0.631 0.137-0.331 0.4-0.956h1.188c0.406 0.938 0.012 0.031 0.413 0.956h3.3v-1.369c0.738 1.231 0.488 0.806 0.825 1.369h2.6v-5.75h-2.494v1.15c-0.762-1.262-0.394-0.65-0.7-1.15h-2.706v1.287c-0.387-0.912-0.288-0.675-0.55-1.287h-2.025c-0.025 0-0.144 0.012-0.144-0.019h-1.725c-0.8 0-1.444 0.2-1.919 0.581v-0.581h-2.494v0.331c-0.675-0.381-1.294-0.319-4.025-0.331-0.006 0-0.725-0.006-0.725 0h-6.438c-0.156 0.381-0.425 1.025-0.787 1.875-0.175-0.375-0.688-1.488-0.869-1.875h-2.875v1.319c-0.463-1.088-0.294-0.688-0.563-1.319h-2.481c-0.212 0.494-0.856 2-1.444 3.369v-6.862c0-1.656 1.344-3 3-3h30c1.656 0 3 1.344 3 3v10.963zM24.337 10.925c-0.019 0.012-0.087 0.137-0.087 0.475 0 0.375 0.056 0.481 0.069 0.494 0.012 0.006 0.069 0.031 0.212 0.031l0.456-1.056c-0.069 0-0.131-0.006-0.194-0.006-0.35 0-0.438 0.044-0.456 0.063zM23.094 19.106c0.575 0.206 0.688 0.594 0.688 1.15l-0.006 0.863h-1.038l0.006-0.719c0-0.738-0.238-0.863-0.925-0.863h-1.1l-0.006 1.581h-1.038l0.006-4.331h2.462c0.813 0 1.694 0.144 1.694 1.169-0.006 0.475-0.262 0.956-0.744 1.15zM22.7 18.144c0-0.4-0.35-0.462-0.669-0.462h-1.313v0.975h1.294c0.35 0 0.688-0.081 0.688-0.512zM34.056 17.7h1.881v-0.913h-2.056c-0.8 0-1.487 0.413-1.487 1.294 0 2.063 2.669 0.8 2.669 1.712 0 0.319-0.269 0.4-0.525 0.4h-2l-0.006 0.925h2c0.525 0 1.1-0.113 1.406-0.556v-1.613c-0.656-0.863-2.456-0.081-2.456-0.844 0-0.363 0.288-0.406 0.575-0.406zM27.856 17.681v-0.894h-3.45l-0.006 4.331h3.45l0.006-0.894-2.413-0.019v-0.863h2.369v-0.881h-2.363v-0.781h2.406zM30.494 20.188h-2.012l-0.006 0.925h2.012c0.925 0 1.638-0.35 1.638-1.375 0-2.075-2.681-0.7-2.681-1.644 0-0.35 0.306-0.4 0.575-0.4h1.9v-0.913h-2.075c-0.8 0-1.469 0.413-1.469 1.294 0 2.063 2.669 0.781 2.669 1.712-0.006 0.337-0.294 0.4-0.55 0.4zM25.613 10.269c-1.087-0.019-2.075-0.256-2.075 1.231 0 0.738 0.175 1.244 1.006 1.244h0.462l1.469-3.406h1.55l1.744 4.088v-4.088h1.581l1.819 3.006v-3.006h1.056v4.313h-1.475l-1.95-3.244v3.244h-2.106l-0.413-0.956h-2.144l-0.4 0.956h-1.2c-1.425 0-2.063-0.738-2.063-2.125 0-1.456 0.656-2.206 2.125-2.206h1.006v0.95zM26.506 11.8h1.425l-0.7-1.725-0.725 1.725zM21.969 9.325h-1.056v4.331h1.056v-4.331zM19.587 11.656c0.594 0.206 0.688 0.575 0.688 1.15v0.844h-1.038c-0.019-0.925 0.225-1.569-0.925-1.569h-1.125v1.569h-1.025v-4.331l2.444 0.019c0.831 0 1.712 0.125 1.712 1.15 0.006 0.5-0.269 0.981-0.731 1.169zM19.169 10.7c0-0.4-0.35-0.463-0.669-0.463h-1.313v0.956h1.294c0.356 0 0.688-0.081 0.688-0.494zM15.45 10.238v-0.912h-3.469v4.331h3.469v-0.894h-2.431v-0.863h2.362v-0.881h-2.363v-0.781h2.431zM10.162 13.656v-3.387l-1.5 3.387h-0.912l-1.5-3.387v3.387h-2.112l-0.4-0.956h-2.156l-0.4 0.956h-1.119l1.856-4.331h1.531l1.756 4.106v-4.106h1.694l1.356 2.938 1.231-2.938h1.725v4.331h-1.050zM3.369 11.8l-0.719-1.725-0.7 1.725h1.419zM19.181 18.206c0 1.744-1.9 1.456-3.081 1.456l-0.006 1.456h-2.012l-1.275-1.438-1.331 1.438h-4.088l0.006-4.331h4.156l1.281 1.425 1.313-1.425h3.294c0.975 0 1.744 0.337 1.744 1.419zM12.137 18.944l-1.119-1.262h-2.606v0.781h2.269v0.881h-2.269v0.863h2.537l1.188-1.262zM15.063 17.25l-1.581 1.712 1.581 1.756v-3.469zM18.081 18.206c0-0.381-0.288-0.525-0.637-0.525h-1.344v1.1h1.325c0.369 0 0.656-0.175 0.656-0.575z"></path>
</symbol>
<symbol id="icon-cc-apple-pay" viewBox="0 0 36 32">
<path d="M18.887 13.65c0 1.075-0.656 1.694-1.813 1.694h-1.519v-3.387h1.525c1.15 0 1.806 0.613 1.806 1.694zM21.856 17.563c0 0.519 0.45 0.856 1.156 0.856 0.9 0 1.575-0.569 1.575-1.369v-0.481l-1.469 0.094c-0.831 0.056-1.262 0.363-1.262 0.9zM36 4.938v22c0 1.656-1.344 3-3 3h-30c-1.656 0-3-1.344-3-3v-22c0-1.656 1.344-3 3-3h30c1.656 0 3 1.344 3 3zM7.987 12.325c0.525 0.044 1.050-0.262 1.381-0.65 0.325-0.4 0.537-0.938 0.481-1.481-0.463 0.019-1.037 0.306-1.369 0.706-0.3 0.344-0.556 0.9-0.494 1.425zM11.775 16.981c-0.012-0.012-1.225-0.475-1.238-1.875-0.012-1.169 0.956-1.731 1-1.762-0.55-0.813-1.4-0.9-1.694-0.919-0.762-0.044-1.412 0.431-1.775 0.431-0.369 0-0.919-0.412-1.519-0.4-0.781 0.012-1.513 0.456-1.906 1.162-0.819 1.412-0.213 3.5 0.581 4.65 0.388 0.569 0.856 1.194 1.469 1.169 0.581-0.025 0.813-0.375 1.512-0.375 0.706 0 0.906 0.375 1.519 0.369 0.637-0.012 1.031-0.569 1.425-1.137 0.431-0.65 0.613-1.275 0.625-1.313zM20.238 13.644c0-1.662-1.156-2.8-2.806-2.8h-3.2v8.525h1.325v-2.913h1.831c1.675 0 2.85-1.15 2.85-2.813zM25.863 15.125c0-1.231-0.988-2.025-2.5-2.025-1.406 0-2.444 0.806-2.481 1.906h1.194c0.1-0.525 0.587-0.869 1.25-0.869 0.813 0 1.262 0.375 1.262 1.075v0.469l-1.65 0.1c-1.538 0.094-2.369 0.725-2.369 1.819 0 1.106 0.856 1.837 2.087 1.837 0.831 0 1.6-0.419 1.95-1.087h0.025v1.025h1.225v-4.25zM32.25 13.181h-1.344l-1.556 5.037h-0.025l-1.556-5.037h-1.394l2.244 6.206-0.119 0.375c-0.2 0.637-0.531 0.887-1.119 0.887-0.106 0-0.306-0.012-0.387-0.019v1.025c0.075 0.025 0.406 0.031 0.506 0.031 1.294 0 1.9-0.494 2.431-1.988l2.319-6.519z"></path>
</symbol>
<symbol id="icon-cc-diners-club" viewBox="0 0 36 32">
<path d="M14.981 4.994c-6.056 0-10.988 4.912-10.988 10.988 0 6.056 4.931 10.987 10.988 10.987 6.075 0 10.988-4.931 10.988-10.988 0-6.075-4.913-10.988-10.988-10.988zM12.488 22.469c-2.606-0.994-4.463-3.525-4.463-6.488s1.856-5.494 4.463-6.506v12.994zM17.475 22.488v-13.012c2.606 1.012 4.462 3.544 4.462 6.506s-1.856 5.494-4.462 6.506zM33 2h-30c-1.656 0-3 1.344-3 3v22c0 1.656 1.344 3 3 3h30c1.656 0 3-1.344 3-3v-22c0-1.656-1.344-3-3-3zM20.606 28h-5.644c-6.637 0-12.113-5.344-12.113-11.887 0-7.162 5.475-12.113 12.113-12.113h5.644c6.563 0 12.544 4.95 12.544 12.113 0 6.544-5.981 11.887-12.544 11.887z"></path>
</symbol>
<symbol id="icon-cc-discover" viewBox="0 0 36 32">
<path d="M5.188 13.256c0 0.494-0.2 0.969-0.556 1.294-0.306 0.275-0.725 0.4-1.369 0.4h-0.263v-3.387h0.263c0.644 0 1.044 0.106 1.369 0.412 0.356 0.313 0.556 0.787 0.556 1.281zM31.55 11.5h-0.306v1.556h0.294c0.644 0 0.987-0.275 0.987-0.8 0-0.494-0.344-0.756-0.975-0.756zM36 5v22c0 1.656-1.344 3-3 3h-30c-1.656 0-3-1.344-3-3v-22c0-1.656 1.344-3 3-3h30c1.656 0 3 1.344 3 3zM26.75 15.813h2.831v-0.863h-1.831v-1.387h1.769v-0.863h-1.769v-1.137h1.831v-0.875h-2.831v5.125zM21.363 10.688l2.188 5.262h0.538l2.219-5.262h-1.094l-1.387 3.45-1.369-3.45h-1.094zM16.175 13.287c0 1.537 1.244 2.787 2.788 2.787 1.538 0 2.788-1.244 2.788-2.787 0-1.537-1.244-2.787-2.788-2.787-1.538 0-2.788 1.244-2.788 2.787zM11.925 13.256c0 2.031 2.1 3.281 3.956 2.388v-1.188c-1.206 1.206-2.925 0.363-2.925-1.2 0-1.481 1.669-2.444 2.925-1.188v-1.188c-1.887-0.938-3.956 0.425-3.956 2.375zM9.806 15.025c-0.475 0-0.863-0.231-1.094-0.675l-0.644 0.619c1.113 1.631 3.537 1.137 3.537-0.706 0-0.819-0.338-1.188-1.475-1.6-0.6-0.213-0.769-0.369-0.769-0.644 0-0.544 0.906-0.881 1.556-0.156l0.525-0.675c-1.194-1.069-3.106-0.556-3.106 0.894 0 0.706 0.325 1.075 1.262 1.419 1.606 0.569 0.919 1.525 0.206 1.525zM6.219 13.256c0-1.506-1.125-2.569-2.756-2.569h-1.462v5.125h1.462c1.931 0 2.756-1.4 2.756-2.556zM7.681 10.688h-1v5.125h1v-5.125zM34 18c-2.081 1.3-14.15 7.775-26 10h25.063c0.513 0 0.938-0.425 0.938-0.938v-9.063zM34 15.813l-1.619-2.156c0.756-0.156 1.169-0.662 1.169-1.45 0-1.781-1.894-1.525-3.306-1.525v5.125h1v-2.050h0.137l1.387 2.050h1.231z"></path>
</symbol>
<symbol id="icon-cc-jcb" viewBox="0 0 36 32">
<path d="M26.969 15.269v-2.019c2.575 0 2.406 0.012 2.406 0.012 0.456 0.081 0.831 0.456 0.831 1 0 0.55-0.375 0.906-0.831 0.988-0.075 0.025-0.206 0.019-2.406 0.019zM29.644 16.531c-0.175-0.044-0.206-0.031-2.675-0.031v2.188c2.475 0 2.5 0.012 2.675-0.031 0.469-0.094 0.844-0.5 0.844-1.063 0-0.544-0.375-0.969-0.844-1.063zM36 5v22c0 1.656-1.344 3-3 3h-30c-1.656 0-3-1.344-3-3v-22c0-1.656 1.344-3 3-3h30c1.656 0 3 1.344 3 3zM11.375 12.019h-3.563c0 4.194 0.669 6.856-2.237 6.856-1.219 0-2.425-0.356-3.575-0.925v1.75c1.875 0.519 4.25 0.519 4.25 0.519 6.119 0 5.125-2.981 5.125-8.2zM22.531 12.3c-3.962-1-10.313-0.931-10.313 3.706 0 4.819 6.762 4.6 10.313 3.7v-1.769c-2.975 1.544-6.719 1.375-6.719-1.938s3.738-3.475 6.719-1.95v-1.75zM34 17.906c0-1.156-1.031-1.906-2.375-2v-0.050c1.219-0.169 1.894-0.969 1.894-1.887 0-1.188-0.981-1.875-2.313-1.938 0 0 0.394-0.019-7.519-0.019v7.969h7.669c1.519 0.006 2.644-0.806 2.644-2.075z"></path>
</symbol>
<symbol id="icon-cc-mastercard" viewBox="0 0 36 32">
<path d="M30.181 25.644c0 0.425-0.288 0.731-0.7 0.731-0.425 0-0.7-0.325-0.7-0.731s0.275-0.731 0.7-0.731c0.413 0 0.7 0.325 0.7 0.731zM10.756 24.913c-0.444 0-0.7 0.325-0.7 0.731s0.256 0.731 0.7 0.731c0.406 0 0.681-0.306 0.681-0.731-0.006-0.406-0.275-0.731-0.681-0.731zM18.1 24.894c-0.337 0-0.544 0.219-0.594 0.544h1.194c-0.056-0.356-0.275-0.544-0.6-0.544zM24.837 24.913c-0.425 0-0.681 0.325-0.681 0.731s0.256 0.731 0.681 0.731c0.425 0 0.7-0.306 0.7-0.731 0-0.406-0.275-0.731-0.7-0.731zM31.456 26.544c0 0.019 0.019 0.031 0.019 0.069 0 0.019-0.019 0.031-0.019 0.069-0.019 0.019-0.019 0.031-0.031 0.050-0.019 0.019-0.031 0.031-0.069 0.031-0.019 0.019-0.031 0.019-0.069 0.019-0.019 0-0.031 0-0.069-0.019-0.019 0-0.031-0.019-0.050-0.031-0.019-0.019-0.031-0.031-0.031-0.050-0.019-0.031-0.019-0.050-0.019-0.069 0-0.031 0-0.050 0.019-0.069 0-0.031 0.019-0.050 0.031-0.069 0.019-0.019 0.031-0.019 0.050-0.031 0.031-0.019 0.050-0.019 0.069-0.019 0.031 0 0.050 0 0.069 0.019 0.031 0.019 0.050 0.019 0.069 0.031s0.012 0.038 0.031 0.069zM31.319 26.631c0.031 0 0.031-0.019 0.050-0.019 0.019-0.019 0.019-0.031 0.019-0.050s0-0.031-0.019-0.050c-0.019 0-0.031-0.019-0.069-0.019h-0.1v0.219h0.050v-0.087h0.019l0.069 0.087h0.050l-0.069-0.081zM36 5.063v22c0 1.656-1.344 3-3 3h-30c-1.656 0-3-1.344-3-3v-22c0-1.656 1.344-3 3-3h30c1.656 0 3 1.344 3 3zM4 13.787c0 4.781 3.881 8.656 8.656 8.656 1.7 0 3.369-0.512 4.781-1.444-4.556-3.706-4.525-10.7 0-14.406-1.413-0.938-3.081-1.444-4.781-1.444-4.775-0.006-8.656 3.875-8.656 8.637zM18 20.587c4.406-3.438 4.387-10.137 0-13.594-4.387 3.456-4.406 10.163 0 13.594zM9.106 25.356c0-0.544-0.356-0.9-0.919-0.919-0.287 0-0.594 0.087-0.8 0.406-0.15-0.256-0.406-0.406-0.763-0.406-0.237 0-0.475 0.087-0.662 0.337v-0.275h-0.513v2.294h0.513c0-1.181-0.156-1.887 0.563-1.887 0.638 0 0.513 0.637 0.513 1.887h0.494c0-1.144-0.156-1.887 0.562-1.887 0.637 0 0.512 0.625 0.512 1.887h0.512v-1.438zM11.912 24.5h-0.494v0.275c-0.169-0.206-0.406-0.337-0.731-0.337-0.644 0-1.137 0.512-1.137 1.206 0 0.7 0.494 1.206 1.137 1.206 0.325 0 0.563-0.119 0.731-0.337v0.288h0.494v-2.3zM14.444 26.1c0-0.938-1.431-0.512-1.431-0.95 0-0.356 0.744-0.3 1.156-0.069l0.206-0.406c-0.588-0.381-1.887-0.375-1.887 0.512 0 0.894 1.431 0.519 1.431 0.938 0 0.394-0.844 0.363-1.294 0.050l-0.219 0.394c0.7 0.475 2.037 0.375 2.037-0.469zM16.656 26.681l-0.137-0.425c-0.238 0.131-0.762 0.275-0.762-0.256v-1.038h0.819v-0.462h-0.819v-0.7h-0.512v0.7h-0.475v0.456h0.475v1.044c0 1.1 1.081 0.9 1.412 0.681zM17.488 25.844h1.719c0-1.012-0.462-1.413-1.087-1.413-0.663 0-1.137 0.494-1.137 1.206 0 1.281 1.413 1.494 2.113 0.887l-0.238-0.375c-0.488 0.4-1.225 0.363-1.369-0.306zM21.181 24.5c-0.288-0.125-0.725-0.113-0.95 0.275v-0.275h-0.512v2.294h0.512v-1.294c0-0.725 0.594-0.631 0.8-0.525l0.15-0.475zM21.844 25.644c0-0.712 0.725-0.944 1.294-0.525l0.238-0.406c-0.725-0.569-2.044-0.256-2.044 0.938 0 1.238 1.4 1.488 2.044 0.938l-0.238-0.406c-0.575 0.406-1.294 0.163-1.294-0.538zM26.012 24.5h-0.512v0.275c-0.519-0.688-1.869-0.3-1.869 0.869 0 1.2 1.4 1.544 1.869 0.869v0.288h0.512v-2.3zM28.119 24.5c-0.15-0.075-0.688-0.181-0.95 0.275v-0.275h-0.494v2.294h0.494v-1.294c0-0.688 0.563-0.644 0.8-0.525l0.15-0.475zM30.637 23.569h-0.494v1.206c-0.512-0.681-1.869-0.319-1.869 0.869 0 1.212 1.406 1.538 1.869 0.869v0.288h0.494v-3.231zM31.113 18.875v0.288h0.050v-0.288h0.119v-0.050h-0.288v0.050h0.119zM31.525 26.613c0-0.031 0-0.069-0.019-0.1-0.019-0.019-0.031-0.050-0.050-0.069s-0.050-0.031-0.069-0.050c-0.031 0-0.069-0.019-0.1-0.019-0.019 0-0.050 0.019-0.087 0.019-0.031 0.019-0.050 0.031-0.069 0.050-0.031 0.019-0.050 0.050-0.050 0.069-0.019 0.031-0.019 0.069-0.019 0.1 0 0.019 0 0.050 0.019 0.087 0 0.019 0.019 0.050 0.050 0.069 0.019 0.019 0.031 0.031 0.069 0.050 0.031 0.019 0.069 0.019 0.087 0.019 0.031 0 0.069 0 0.1-0.019 0.019-0.019 0.050-0.031 0.069-0.050s0.031-0.050 0.050-0.069c0.019-0.038 0.019-0.069 0.019-0.087zM31.725 18.819h-0.087l-0.1 0.219-0.1-0.219h-0.087v0.337h0.050v-0.256l0.1 0.219h0.069l0.087-0.219v0.256h0.069v-0.337zM32 13.787c0-4.763-3.881-8.644-8.656-8.644-1.7 0-3.369 0.513-4.781 1.444 4.506 3.706 4.575 10.719 0 14.406 1.413 0.938 3.094 1.444 4.781 1.444 4.775 0.006 8.656-3.869 8.656-8.65z"></path>
</symbol>
<symbol id="icon-cc-paypal" viewBox="0 0 36 32">
<path d="M11.644 16.137c0 0.762-0.606 1.344-1.375 1.344-0.575 0-1-0.325-1-0.938 0-0.762 0.594-1.375 1.356-1.375 0.581 0 1.019 0.356 1.019 0.969zM5.031 13.106h-0.294c-0.094 0-0.188 0.063-0.2 0.169l-0.269 1.669 0.513-0.019c0.688 0 1.219-0.094 1.344-0.887 0.144-0.838-0.388-0.931-1.094-0.931zM22.781 13.106h-0.281c-0.113 0-0.188 0.063-0.2 0.169l-0.262 1.669 0.5-0.019c0.813 0 1.375-0.188 1.375-1.125-0.006-0.662-0.6-0.694-1.131-0.694zM36 5v22c0 1.656-1.344 3-3 3h-30c-1.656 0-3-1.344-3-3v-22c0-1.656 1.344-3 3-3h30c1.656 0 3 1.344 3 3zM8.019 13.463c0-1.313-1.013-1.75-2.169-1.75h-2.5c-0.156 0-0.313 0.125-0.325 0.294l-1.025 6.381c-0.019 0.125 0.075 0.25 0.2 0.25h1.188c0.169 0 0.325-0.181 0.344-0.356l0.281-1.663c0.063-0.45 0.825-0.294 1.125-0.294 1.787 0 2.881-1.063 2.881-2.863zM13.281 14.012h-1.188c-0.238 0-0.25 0.344-0.262 0.512-0.363-0.531-0.887-0.625-1.481-0.625-1.531 0-2.7 1.344-2.7 2.825 0 1.219 0.763 2.012 1.981 2.012 0.563 0 1.262-0.306 1.656-0.744-0.031 0.094-0.063 0.294-0.063 0.387 0 0.144 0.063 0.25 0.2 0.25h1.075c0.169 0 0.313-0.181 0.344-0.356l0.637-4.019c0.019-0.119-0.075-0.244-0.2-0.244zM15.813 20.131l3.981-5.787c0.031-0.031 0.031-0.063 0.031-0.106 0-0.106-0.094-0.219-0.2-0.219h-1.2c-0.106 0-0.219 0.063-0.281 0.156l-1.656 2.438-0.688-2.344c-0.050-0.137-0.188-0.25-0.344-0.25h-1.169c-0.106 0-0.2 0.113-0.2 0.219 0 0.075 1.219 3.55 1.325 3.881-0.169 0.238-1.281 1.788-1.281 1.975 0 0.113 0.094 0.2 0.2 0.2h1.2c0.113-0.006 0.219-0.069 0.281-0.163zM25.769 13.463c0-1.313-1.012-1.75-2.169-1.75h-2.481c-0.169 0-0.325 0.125-0.344 0.294l-1.012 6.375c-0.012 0.125 0.081 0.25 0.2 0.25h1.281c0.125 0 0.219-0.094 0.25-0.2l0.281-1.813c0.063-0.45 0.825-0.294 1.125-0.294 1.775 0 2.869-1.063 2.869-2.863zM31.031 14.012h-1.188c-0.238 0-0.25 0.344-0.269 0.512-0.344-0.531-0.875-0.625-1.481-0.625-1.531 0-2.7 1.344-2.7 2.825 0 1.219 0.762 2.012 1.981 2.012 0.581 0 1.281-0.306 1.656-0.744-0.019 0.094-0.063 0.294-0.063 0.387 0 0.144 0.063 0.25 0.2 0.25h1.081c0.169 0 0.313-0.181 0.344-0.356l0.637-4.019c0.019-0.119-0.075-0.244-0.2-0.244zM34 11.931c0-0.125-0.094-0.219-0.2-0.219h-1.156c-0.094 0-0.188 0.075-0.2 0.169l-1.012 6.5-0.019 0.031c0 0.113 0.094 0.219 0.219 0.219h1.031c0.156 0 0.313-0.181 0.325-0.356l1.013-6.325v-0.019zM28.375 15.169c-0.762 0-1.356 0.606-1.356 1.375 0 0.606 0.438 0.938 1.012 0.938 0.75 0 1.356-0.575 1.356-1.344 0.006-0.613-0.431-0.969-1.012-0.969z"></path>
</symbol>
<symbol id="icon-cc-stripe" viewBox="0 0 36 32">
<path d="M24.806 16.031c0 1.194-0.55 2.087-1.369 2.087-0.519 0-0.831-0.188-1.050-0.419l-0.012-3.3c0.231-0.256 0.55-0.438 1.063-0.438 0.806-0.006 1.369 0.906 1.369 2.069zM36 5v22c0 1.656-1.344 3-3 3h-30c-1.656 0-3-1.344-3-3v-22c0-1.656 1.344-3 3-3h30c1.656 0 3 1.344 3 3zM7.638 17.569c0-2.644-3.394-2.169-3.394-3.169 0-0.344 0.287-0.481 0.756-0.481 0.675 0 1.531 0.206 2.206 0.569v-2.088c-0.737-0.294-1.469-0.406-2.206-0.406-1.8 0-3 0.938-3 2.512 0 2.456 3.375 2.056 3.375 3.119 0 0.413-0.356 0.544-0.85 0.544-0.737 0-1.681-0.306-2.431-0.706v2.119c0.825 0.356 1.663 0.506 2.425 0.506 1.85-0.012 3.119-0.919 3.119-2.519zM11.944 12.137h-1.688v-1.925l-2.169 0.463-0.012 7.119c0 1.313 0.988 2.281 2.306 2.281 0.725 0 1.262-0.131 1.556-0.294v-1.806c-0.281 0.113-1.688 0.519-1.688-0.788v-3.156h1.688v-1.894zM16.556 12.137c-0.294-0.106-1.331-0.3-1.85 0.656l-0.137-0.656h-1.919v7.781h2.219v-5.275c0.525-0.688 1.412-0.556 1.694-0.463v-2.044zM19.319 12.137h-2.231v7.781h2.231v-7.781zM19.319 9.181l-2.231 0.475v1.806l2.231-0.475v-1.806zM26.988 15.981c0-2.581-1.469-3.988-3.025-3.988-0.869 0-1.431 0.412-1.738 0.694l-0.113-0.55h-1.956v10.363l2.219-0.469 0.006-2.512c0.319 0.231 0.794 0.563 1.569 0.563 1.587-0.006 3.038-1.281 3.038-4.1zM34 16.056c0-2.275-1.1-4.069-3.206-4.069-2.113 0-3.394 1.794-3.394 4.056 0 2.675 1.512 4.031 3.675 4.031 1.063 0 1.856-0.244 2.463-0.575v-1.788c-0.606 0.306-1.3 0.494-2.181 0.494-0.863 0-1.625-0.306-1.725-1.344h4.344c0.006-0.125 0.025-0.587 0.025-0.806zM30.775 13.8c-0.556 0-1.169 0.419-1.169 1.419h2.294c0-1-0.581-1.419-1.125-1.419z"></path>
</symbol>
<symbol id="icon-cc-visa" viewBox="0 0 36 32">
<path d="M29.381 14.456s0.475 2.325 0.581 2.813h-2.087c0.206-0.556 1-2.719 1-2.719-0.012 0.019 0.206-0.569 0.331-0.931l0.175 0.838zM36 5v22c0 1.656-1.344 3-3 3h-30c-1.656 0-3-1.344-3-3v-22c0-1.656 1.344-3 3-3h30c1.656 0 3 1.344 3 3zM9.531 20.7l3.95-9.7h-2.656l-2.456 6.625-0.269-1.344-0.875-4.463c-0.144-0.619-0.588-0.794-1.138-0.819h-4.044l-0.044 0.194c0.988 0.25 1.869 0.613 2.638 1.069l2.237 8.438h2.656zM15.431 20.712l1.575-9.713h-2.512l-1.569 9.713h2.506zM24.175 17.538c0.012-1.106-0.663-1.95-2.106-2.644-0.881-0.444-1.419-0.744-1.419-1.2 0.012-0.412 0.456-0.838 1.444-0.838 0.819-0.019 1.419 0.175 1.869 0.369l0.225 0.106 0.344-2.1c-0.494-0.194-1.281-0.412-2.25-0.412-2.481 0-4.225 1.325-4.238 3.213-0.019 1.394 1.25 2.169 2.2 2.638 0.969 0.475 1.3 0.788 1.3 1.206-0.012 0.65-0.788 0.95-1.506 0.95-1 0-1.538-0.156-2.356-0.519l-0.331-0.156-0.35 2.181c0.587 0.269 1.675 0.506 2.8 0.519 2.637 0.006 4.356-1.3 4.375-3.313zM33 20.712l-2.025-9.713h-1.944c-0.6 0-1.056 0.175-1.313 0.806l-3.731 8.906h2.637s0.431-1.2 0.525-1.456h3.225c0.075 0.344 0.3 1.456 0.3 1.456h2.325z"></path>
</symbol>
<symbol id="icon-codepen" viewBox="0 0 32 32">
<path d="M31.393 9.982l-14.625-9.75c-0.499-0.307-1.032-0.31-1.536 0l-14.625 9.75c-0.375 0.25-0.607 0.696-0.607 1.143v9.75c0 0.446 0.232 0.893 0.607 1.143l14.625 9.751c0.499 0.307 1.032 0.31 1.536 0l14.625-9.751c0.375-0.25 0.607-0.696 0.607-1.143v-9.75c-0-0.446-0.232-0.893-0.607-1.143zM17.375 3.946l10.768 7.179-4.804 3.214-5.964-3.982v-6.411zM14.625 3.946v6.411l-5.964 3.982-4.804-3.214 10.768-7.179zM2.75 13.696l3.446 2.304-3.446 2.304v-4.607zM14.625 28.053l-10.768-7.179 4.804-3.214 5.964 3.982v6.411zM16 19.249l-4.857-3.25 4.857-3.25 4.857 3.25-4.857 3.25zM17.375 28.053v-6.411l5.964-3.982 4.804 3.214-10.768 7.179zM29.25 18.303l-3.446-2.304 3.446-2.304v4.607z"></path>
</symbol>
<symbol id="icon-delicious" viewBox="0 0 28 32">
<path d="M27.906 4.25c-0.025-0.094-0.056-0.188-0.087-0.281-0.056-0.156-0.125-0.3-0.206-0.444-0.087-0.15-0.188-0.3-0.294-0.431-0.131-0.156-0.275-0.3-0.431-0.425-0.069-0.056-0.137-0.106-0.206-0.156-0.081-0.056-0.163-0.106-0.25-0.15-0.113-0.063-0.225-0.112-0.344-0.156-0.106-0.044-0.219-0.081-0.337-0.106-0.238-0.063-0.494-0.094-0.75-0.094h-22c-1.656-0.006-3 1.337-3 2.994v22c0 0.256 0.031 0.512 0.094 0.75 0.125 0.481 0.362 0.913 0.688 1.269 0.063 0.069 0.131 0.137 0.206 0.206 0.356 0.325 0.787 0.563 1.269 0.688 0.237 0.063 0.494 0.094 0.75 0.094h22c1.656 0 3-1.344 3-3v-22.006c-0.006-0.256-0.038-0.513-0.1-0.75zM26 27c0 0.55-0.45 1-1 1h-11v-12h-12v-11c0-0.55 0.45-1 1-1h11v12h12v11z"></path>
</symbol>
<symbol id="icon-deviantart" viewBox="0 0 20 32">
<path d="M20 5.825l-6.137 11.194 0.463 0.594h5.675v7.981h-10.056l-0.844 0.575-2.731 5.25c-0.019 0-0.537 0.538-0.575 0.575h-5.794v-5.825l5.825-11.213-0.463-0.575h-5.362v-7.975h9.75l0.844-0.575 2.731-5.25c0.019 0 0.537-0.537 0.575-0.575h6.1v5.819z"></path>
</symbol>
<symbol id="icon-digg" viewBox="0 0 32 32">
<path d="M5.106 10.769h-5.106v10.9h8.294v-15.669h-3.188v4.769zM5.106 19.106h-1.925v-5.769h1.925v5.769zM23.681 10.769v10.9h5.113v1.781h-5.113v2.55h8.319v-15.231h-8.319zM28.794 19.106h-1.925v-5.769h1.925v5.769zM14.069 21.669h5.131v1.781h-5.131v2.55h8.331v-15.231h-8.331v10.9zM17.269 13.338h1.925v5.769h-1.925v-5.769zM9.581 6h3.206v3.188h-3.206v-3.188zM9.581 10.769h3.206v10.9h-3.206v-10.9z"></path>
</symbol>
<symbol id="icon-digitalocean" viewBox="0 0 32 32">
<path d="M16 31.5v-6.006c6.363 0 11.3-6.306 8.856-13-0.894-2.475-2.881-4.463-5.363-5.356-6.694-2.425-13.006 2.494-13.006 8.856h-5.987c0-10.137 9.806-18.044 20.438-14.725 4.637 1.456 8.35 5.15 9.788 9.787 3.325 10.644-4.563 20.444-14.725 20.444zM16.019 19.538h-5.975v5.975h5.975v-5.975zM10.044 25.512h-4.606v4.6h4.606v-4.6zM5.438 21.663h-3.85v3.85h3.85v-3.85z"></path>
</symbol>
<symbol id="icon-dribbble" viewBox="0 0 32 32">
<path d="M16 0.5c-8.547 0-15.5 6.953-15.5 15.5s6.953 15.5 15.5 15.5 15.5-6.953 15.5-15.5-6.953-15.5-15.5-15.5zM26.248 7.648c1.844 2.253 2.961 5.122 2.99 8.247-0.436-0.092-4.814-0.98-9.219-0.426-0.36-0.878-0.699-1.65-1.164-2.601 4.895-1.999 7.114-4.843 7.393-5.22zM24.776 6.117c-0.238 0.339-2.231 3.018-6.939 4.782-2.169-3.986-4.574-7.261-4.94-7.75 4.198-1.012 8.623 0.079 11.879 2.968zM10.371 4.039c0.349 0.479 2.715 3.757 4.909 7.657-6.193 1.645-11.648 1.621-12.24 1.613 0.859-4.108 3.627-7.523 7.331-9.27zM2.761 16.020c0-0.135 0.003-0.27 0.007-0.405 0.579 0.012 6.995 0.095 13.607-1.884 0.379 0.742 0.741 1.495 1.073 2.247-4.787 1.348-9.137 5.22-11.283 8.894-2.115-2.347-3.404-5.452-3.404-8.852zM7.874 26.465c1.383-2.827 5.136-6.476 10.474-8.297 1.859 4.83 2.627 8.878 2.824 10.040-4.257 1.813-9.376 1.316-13.298-1.743zM23.397 26.995c-0.136-0.805-0.84-4.681-2.572-9.44 4.149-0.664 7.794 0.423 8.247 0.566-0.59 3.684-2.705 6.865-5.675 8.874z"></path>
</symbol>
<symbol id="icon-dropbox" viewBox="0 0 33 32">
<path d="M16.525 7.269l-8.25 5.269 8.25 5.269-8.25 5.269-8.275-5.319 8.269-5.269-8.269-5.219 8.269-5.269 8.256 5.269zM8.225 24.731l8.25-5.269 8.25 5.269-8.25 5.269-8.25-5.269zM16.525 17.756l8.25-5.269-8.25-5.225 8.206-5.263 8.269 5.269-8.269 5.269 8.269 5.262-8.269 5.269-8.206-5.313z"></path>
</symbol>
<symbol id="icon-facebook" viewBox="0 0 17 32">
<path d="M4.794 32v-14.313h-4.794v-5.688h4.794v-4.481c0-4.869 2.975-7.519 7.319-7.519 2.081 0 3.869 0.156 4.387 0.225v5.088h-3.012c-2.363 0-2.819 1.125-2.819 2.769v3.919h5.331l-0.731 5.688h-4.6v14.313z"></path>
</symbol>
<symbol id="icon-flickr" viewBox="0 0 28 32">
<path d="M25 2h-22c-1.656 0-3 1.344-3 3v22c0 1.656 1.344 3 3 3h22c1.656 0 3-1.344 3-3v-22c0-1.656-1.344-3-3-3zM9.031 19.938c-2.194 0-3.969-1.775-3.969-3.969s1.775-3.969 3.969-3.969 3.969 1.775 3.969 3.969-1.775 3.969-3.969 3.969zM18.969 19.938c-2.194 0-3.969-1.775-3.969-3.969s1.775-3.969 3.969-3.969 3.969 1.775 3.969 3.969-1.775 3.969-3.969 3.969z"></path>
</symbol>
<symbol id="icon-foursquare" viewBox="0 0 23 32">
<path d="M20.194 0.188h-17.075c-2.344 0-3.119 1.769-3.119 2.881v27.113c0 1.269 0.756 1.731 1.137 1.881 0.387 0.156 1.425 0.288 2.056-0.444 8.056-9.337 8.194-9.494 8.194-9.494 0.194-0.212 0.213-0.194 0.425-0.194h5.213c2.194 0 2.538-1.575 2.769-2.481l3.038-15.188c0.531-2.65-0.137-4.075-2.637-4.075zM19.175 4.8l-0.712 3.731c-0.075 0.406-0.594 0.825-1.056 0.825h-6.65c-0.75 0-1.287 0.519-1.287 1.269v0.813c0 0.75 0.537 1.287 1.287 1.287h5.65c0.519 0 1.038 0.575 0.925 1.137-0.113 0.556-0.656 3.362-0.712 3.675-0.056 0.306-0.425 0.844-1.056 0.844h-4.594c-0.844 0-1.075 0.113-1.656 0.788 0 0-0.556 0.712-5.594 6.769-0.056 0.056-0.112 0.038-0.112-0.019v-21.175c0-0.481 0.425-1.038 1.038-1.038h13.687c0.512 0 0.975 0.481 0.844 1.094z"></path>
</symbol>
<symbol id="icon-getpocket" viewBox="0 0 28 32">
<path d="M25.475 4h-22.938c-1.381 0-2.538 1.156-2.538 2.537v8.45c0 7.794 6.231 14.013 14.012 14.013 7.75 0 13.987-6.219 13.987-14.012v-8.45c0-1.4-1.106-2.537-2.525-2.537zM15.35 20.781c-0.775 0.738-1.963 0.694-2.65 0-7.106-6.806-7.181-6.569-7.181-7.7 0-1.056 0.862-1.919 1.919-1.919 1.063 0 1.006 0.238 6.575 5.581 5.662-5.431 5.537-5.581 6.594-5.581s1.919 0.863 1.919 1.919c0 1.113-0.181 0.981-7.175 7.7z"></path>
</symbol>
<symbol id="icon-github" viewBox="0 0 30 32">
<path d="M11.631 20.544c0 1.306-0.681 3.444-2.294 3.444s-2.294-2.137-2.294-3.444 0.681-3.444 2.294-3.444 2.294 2.137 2.294 3.444zM30 17.387c0 1.994-0.2 4.106-1.094 5.938-2.369 4.787-8.881 4.675-13.544 4.675-4.738 0-11.637 0.169-14.1-4.675-0.912-1.813-1.262-3.944-1.262-5.938 0-2.619 0.869-5.094 2.594-7.1-0.325-0.988-0.481-2.025-0.481-3.050 0-1.344 0.306-2.019 0.913-3.237 2.831 0 4.644 0.563 6.8 2.25 1.813-0.431 3.675-0.625 5.544-0.625 1.688 0 3.387 0.181 5.025 0.575 2.125-1.669 3.938-2.2 6.738-2.2 0.613 1.219 0.913 1.894 0.913 3.237 0 1.025-0.163 2.044-0.481 3.013 1.719 2.025 2.438 4.519 2.438 7.137zM25.981 20.544c0-2.744-1.669-5.162-4.594-5.162-1.181 0-2.313 0.213-3.5 0.375-0.931 0.144-1.863 0.2-2.819 0.2-0.95 0-1.881-0.056-2.819-0.2-1.169-0.162-2.313-0.375-3.5-0.375-2.925 0-4.594 2.419-4.594 5.162 0 5.488 5.025 6.331 9.4 6.331h3.013c4.394 0 9.413-0.837 9.413-6.331zM20.819 17.1c-1.613 0-2.294 2.137-2.294 3.444s0.681 3.444 2.294 3.444 2.294-2.137 2.294-3.444-0.681-3.444-2.294-3.444z"></path>
</symbol>
<symbol id="icon-gitlab" viewBox="0 0 32 32">
<path d="M1.861 12.483l14.139 18.374-15.495-11.501c-0.428-0.321-0.607-0.875-0.446-1.375l1.803-5.498zM6.574 1.558c-0.196-0.553-0.982-0.553-1.178 0l-3.535 10.925h8.248l-3.535-10.925zM10.109 12.483l5.891 18.374 5.891-18.374h-11.782zM31.942 17.982l-1.803-5.498-14.139 18.374 15.495-11.501c0.428-0.321 0.607-0.875 0.446-1.375zM26.604 1.558c-0.196-0.553-0.982-0.553-1.178 0l-3.535 10.925h8.248l-3.535-10.925z"></path>
</symbol>
<symbol id="icon-gitter" viewBox="0 0 24 32">
<path d="M4.15 20.156h-3.15v-20.156h3.15v20.156zM10.431 4.756h-3.15v27.244h3.15v-27.244zM16.719 4.756h-3.15v27.244h3.15v-27.244zM23 4.75h-3.15v15.438h3.15v-15.438z"></path>
</symbol>
<symbol id="icon-google-plus" viewBox="0 0 40 32">
<path d="M24.129 14.281c0.115 0.606 0.196 1.211 0.196 1.997 0 6.86-4.6 11.722-11.525 11.722-6.63 0-12-5.37-12-12s5.37-12 12-12c3.241 0 5.943 1.179 8.038 3.143l-3.258 3.127c-0.884-0.851-2.439-1.85-4.78-1.85-4.093 0-7.433 3.389-7.433 7.58s3.34 7.58 7.433 7.58c4.748 0 6.532-3.422 6.81-5.173h-6.81v-4.126h11.329zM35.717 14.683v-3.483h-3.5v3.483h-3.483v3.5h3.483v3.483h3.5v-3.483h3.483v-3.5h-3.483z"></path>
</symbol>
<symbol id="icon-google-wallet" viewBox="0 0 28 32">
<path d="M9.8 7.925c2.35 3.788 4.012 7.069 5.269 10.156-0.519 2.113-1.175 4.156-1.956 6.144-0.825-3.269-1.656-6.331-3.5-9.281 0.406-2.275 0.144-4.6 0.188-7.019zM6.831 12.5h-5.825c-0.406 0-0.656 0.469-0.406 0.794 2.638 3.394 4.481 7.363 5.731 11.706h6.469c-1.012-4.356-2.419-8.356-5.156-12.094-0.188-0.25-0.5-0.406-0.813-0.406zM9.819 7c4.281 6.75 8.125 14.656 8.637 23h7.106c-0.75-8.625-4.275-16.563-8.95-23h-6.794zM25.556 2.719c-0.113-0.425-0.512-0.719-0.95-0.719h-5.519c-0.331 0-0.563 0.313-0.488 0.644 0.825 2.906 1.394 5.969 1.656 9.125 3.012 5.387 4.981 11.144 5.662 16.925 0.988-3.781 1.581-8.344 1.581-12.688 0-4.6-0.756-9.069-1.944-13.287z"></path>
</symbol>
<symbol id="icon-hubspot" viewBox="0 0 32 32">
<path d="M16.712 13.225c-1.569 1.481-2.55 3.581-2.55 5.912 0 1.831 0.606 3.519 1.625 4.875l-3.094 3.113c-0.275-0.1-0.569-0.156-0.875-0.156-0.675 0-1.306 0.262-1.781 0.738s-0.738 1.113-0.738 1.788 0.262 1.306 0.738 1.781c0.475 0.475 1.113 0.725 1.781 0.725 0.675 0 1.306-0.244 1.787-0.725 0.475-0.475 0.738-1.113 0.738-1.781 0-0.262-0.037-0.512-0.119-0.756l3.125-3.137c1.375 1.056 3.087 1.681 4.956 1.681 4.494 0 8.125-3.644 8.125-8.137 0-4.075-2.981-7.45-6.887-8.044v-3.85c1.094-0.463 1.762-1.487 1.762-2.681 0-1.631-1.306-2.994-2.938-2.994s-2.919 1.363-2.919 2.994c0 1.194 0.669 2.219 1.762 2.681v3.825c-0.95 0.131-1.85 0.419-2.669 0.85-1.725-1.306-7.344-5.356-10.556-7.8 0.075-0.275 0.125-0.563 0.125-0.862 0-1.8-1.469-3.263-3.275-3.263-1.8 0-3.263 1.462-3.263 3.263 0 1.806 1.462 3.269 3.263 3.269 0.612 0 1.181-0.181 1.675-0.475l10.2 7.169zM22.306 23.45c-2.381 0-4.313-1.931-4.313-4.313s1.931-4.313 4.313-4.313 4.313 1.931 4.313 4.313-1.931 4.313-4.313 4.313z"></path>
</symbol>
<symbol id="icon-instagram" viewBox="0 0 28 32">
<path d="M14.006 8.813c-3.975 0-7.181 3.206-7.181 7.181s3.206 7.181 7.181 7.181 7.181-3.206 7.181-7.181-3.206-7.181-7.181-7.181zM14.006 20.663c-2.569 0-4.669-2.094-4.669-4.669s2.094-4.669 4.669-4.669 4.669 2.094 4.669 4.669-2.1 4.669-4.669 4.669zM23.156 8.519c0 0.931-0.75 1.675-1.675 1.675-0.931 0-1.675-0.75-1.675-1.675s0.75-1.675 1.675-1.675 1.675 0.75 1.675 1.675zM27.913 10.219c-0.106-2.244-0.619-4.231-2.262-5.869-1.637-1.638-3.625-2.15-5.869-2.263-2.313-0.131-9.244-0.131-11.556 0-2.237 0.106-4.225 0.619-5.869 2.256s-2.15 3.625-2.263 5.869c-0.131 2.313-0.131 9.244 0 11.556 0.106 2.244 0.619 4.231 2.263 5.869s3.625 2.15 5.869 2.262c2.313 0.131 9.244 0.131 11.556 0 2.244-0.106 4.231-0.619 5.869-2.262 1.637-1.637 2.15-3.625 2.262-5.869 0.131-2.313 0.131-9.238 0-11.55zM24.925 24.25c-0.488 1.225-1.431 2.169-2.663 2.663-1.844 0.731-6.219 0.563-8.256 0.563s-6.419 0.163-8.256-0.563c-1.225-0.488-2.169-1.431-2.663-2.663-0.731-1.844-0.563-6.219-0.563-8.256s-0.163-6.419 0.563-8.256c0.487-1.225 1.431-2.169 2.663-2.662 1.844-0.731 6.219-0.563 8.256-0.563s6.419-0.162 8.256 0.563c1.225 0.487 2.169 1.431 2.663 2.662 0.731 1.844 0.563 6.219 0.563 8.256s0.169 6.419-0.563 8.256z"></path>
</symbol>
<symbol id="icon-jsfiddle" viewBox="0 0 36 32">
<path d="M31.915 14.841c-0.295-0.164-0.354-0.359-0.399-0.674-0.147-1.030-0.221-2.101-0.569-3.068-2.243-6.247-9.624-8.962-15.428-5.728-1.711 0.953-3.061 2.273-4.093 3.994-0.199-0.094-0.341-0.169-0.489-0.23-1.881-0.776-3.691-0.633-5.333 0.573-1.596 1.171-2.276 2.784-2.042 4.775 0.022 0.189-0.123 0.476-0.282 0.597-2.482 1.874-3.502 4.879-2.619 7.788 0.864 2.848 3.595 4.987 6.601 5.090 1.893 0.064 3.79 0.034 5.685 0.034 5.253-0.001 10.506 0.033 15.758-0.030 3.291-0.040 6.007-2.305 6.763-5.456 0.721-3.005-0.697-6.081-3.552-7.665zM33.234 24.646c-1.139 1.402-2.646 2.203-4.455 2.228-3.555 0.049-7.11 0.014-10.666 0.014 0 0.044-10.189 0.010-10.233 0.010-2.741-0.021-4.796-1.235-5.948-3.75-1.181-2.578-0.25-5.678 2.137-7.257 0.574-0.38 0.782-0.723 0.631-1.446-0.343-1.648 0.278-2.997 1.651-3.936 1.437-0.983 2.964-1.009 4.502-0.193 0.642 0.341 0.913 0.723 1.387-0.158 0.889-1.65 2.16-2.92 3.792-3.831 6.091-3.398 14.273 0.473 14.39 8.294 0.008 0.509 0.151 0.777 0.616 0.993 3.598 1.677 4.654 6.008 2.196 9.031zM27.747 19.615c-0.366 1.947-2.164 3.444-4.167 3.443-1.060-0-2.004-0.409-2.755-1.107-1.731-1.607-4.446-4.686-5.996-5.837-1.254-0.931-2.624-0.771-3.767 0.236-3.125 2.754 0.991 7.611 4.191 4.824 0.284-0.247 0.49-0.596 0.796-0.803 0.512-0.344 1.298-0.055 0.823 0.664-1.085 1.643-3.083 2.387-4.929 1.831-1.806-0.544-3.053-2.248-3.039-4.386 0.077-1.405 0.773-2.691 2.213-3.498 1.411-0.79 2.898-0.822 4.187 0.155 3.174 2.405 4.724 5.109 6.706 6.328 1.535 0.944 3.391 0.46 4.301-1.094 1.802-3.076-2.162-6.564-4.929-3.966-0.249 0.234-0.432 0.558-0.713 0.733-0.686 0.426-1.083-0.257-0.801-0.647 1.294-1.785 3.154-2.527 5.204-1.763 1.964 0.732 3.069 2.773 2.672 4.887z"></path>
</symbol>
<symbol id="icon-kickstarter" viewBox="0 0 24 32">
<path d="M9.206 7.15c0-3.513-2.031-5.15-4.588-5.15-2.981 0-4.619 2.263-4.619 5.088v17.688c0 2.956 1.581 5.212 4.681 5.212 2.487 0 4.525-1.6 4.525-5.212v-4.781l7.006 8.644c1.419 1.7 4.506 1.919 6.45 0 1.688-1.725 1.706-4.213 0.462-5.762l-5.675-7.175 4.681-6.713c1.087-1.544 1.094-3.944-0.65-5.612-1.894-1.813-5.15-1.975-7.1 0.8l-5.175 7.388v-4.412z"></path>
</symbol>
<symbol id="icon-lastfm" viewBox="0 0 32 32">
<path d="M14.113 22.944l-1.175-3.188s-1.906 2.125-4.762 2.125c-2.531 0-4.325-2.2-4.325-5.719 0-4.506 2.275-6.119 4.506-6.119 4.156 0 4.675 3.331 6.306 8.431 1.175 3.556 3.375 6.413 9.713 6.413 4.544 0 7.625-1.394 7.625-5.056 0-4.556-3.919-5.037-7.188-5.756-1.613-0.369-2.087-1.025-2.087-2.125 0-1.244 0.988-1.981 2.6-1.981 1.762 0 2.712 0.662 2.856 2.237l3.663-0.438c-0.294-3.3-2.569-4.656-6.306-4.656-3.3 0-6.525 1.244-6.525 5.244 0 2.494 1.212 4.069 4.25 4.8 2.806 0.663 4.988 0.863 4.988 2.856 0 1.356-1.319 1.906-3.813 1.906-3.7 0-5.244-1.944-6.119-4.619-2-6.050-2.725-10.188-10.081-10.188-5.381 0-8.238 3.406-8.238 9.2 0 5.569 2.856 8.575 7.994 8.575 4.138 0 6.119-1.944 6.119-1.944z"></path>
</symbol>
<symbol id="icon-leanpub" viewBox="0 0 36 32">
<path d="M24.159 6.968l0.944 15.56-0.686-0.017c-2.265-0.052-4.477 0.549-6.416 1.75-1.939-1.201-4.152-1.75-6.416-1.75-2.848 0-5.129 0.669-7.72 1.733l1.956-16.143c1.784-0.738 3.843-1.132 5.764-1.132 2.573 0 4.615 0.823 6.416 2.659 1.733-1.767 3.688-2.608 6.159-2.659zM35.567 28c-1.595 0-2.968-0.326-4.409-0.978-2.144-0.978-4.375-1.561-6.742-1.561-2.436 0-4.683 0.806-6.416 2.539-1.733-1.733-3.98-2.539-6.416-2.539-2.367 0-4.598 0.583-6.742 1.561-1.39 0.618-2.796 0.978-4.323 0.978h-0.086l2.659-21.821c2.453-1.39 5.438-2.179 8.269-2.179 2.316 0 4.701 0.48 6.639 1.818 1.939-1.338 4.323-1.818 6.639-1.818 2.831 0 5.816 0.789 8.269 2.179l2.659 21.821zM32.856 25.204l-2.127-17.515c-1.921-0.875-4.203-1.338-6.313-1.338-2.402 0-4.649 0.755-6.416 2.419-1.767-1.664-4.014-2.419-6.416-2.419-2.11 0-4.392 0.463-6.313 1.338l-2.127 17.515c2.951-1.218 5.181-2.093 8.44-2.093 2.35 0 4.426 0.6 6.416 1.853 1.99-1.252 4.066-1.853 6.416-1.853 3.259 0 5.49 0.875 8.44 2.093z"></path>
</symbol>
<symbol id="icon-linkedin" viewBox="0 0 28 32">
<path d="M6.269 30h-5.806v-18.694h5.806v18.694zM3.362 8.756c-1.856 0-3.362-1.537-3.362-3.394s1.506-3.362 3.362-3.362c1.856 0 3.362 1.506 3.362 3.362s-1.506 3.394-3.362 3.394zM28 30h-5.794v-9.1c0-2.169-0.044-4.95-3.019-4.95-3.019 0-3.481 2.356-3.481 4.794v9.256h-5.8v-18.694h5.569v2.55h0.081c0.775-1.469 2.669-3.019 5.494-3.019 5.875 0 6.956 3.869 6.956 8.894v10.269z"></path>
</symbol>
<symbol id="icon-envelope" viewBox="0 0 32 32">
<path d="M29 4h-26c-1.657 0-3 1.343-3 3v18c0 1.657 1.343 3 3 3h26c1.657 0 3-1.343 3-3v-18c0-1.657-1.343-3-3-3zM29 7v2.55c-1.401 1.141-3.636 2.916-8.412 6.656-1.053 0.828-3.138 2.817-4.588 2.794-1.45 0.023-3.536-1.966-4.588-2.794-4.775-3.739-7.010-5.514-8.412-6.656v-2.55h26zM3 25v-11.6c1.432 1.141 3.463 2.741 6.559 5.165 1.366 1.075 3.758 3.449 6.441 3.435 2.67 0.014 5.032-2.325 6.441-3.434 3.096-2.424 5.127-4.025 6.559-5.166v11.6h-26z"></path>
</symbol>
<symbol id="icon-medium" viewBox="0 0 32 32">
<path d="M4.469 8.894c0.037-0.369-0.106-0.738-0.381-0.987l-2.819-3.4v-0.506h8.762l6.775 14.856 5.956-14.856h8.356v0.506l-2.413 2.313c-0.206 0.156-0.313 0.419-0.269 0.675v17c-0.044 0.256 0.063 0.519 0.269 0.675l2.356 2.313v0.506h-11.856v-0.506l2.444-2.369c0.238-0.238 0.238-0.313 0.238-0.675v-13.738l-6.794 17.244h-0.919l-7.9-17.244v11.556c-0.069 0.488 0.094 0.975 0.438 1.325l3.175 3.85v0.506h-9v-0.5l3.175-3.856c0.338-0.35 0.494-0.844 0.406-1.325v-13.363z"></path>
</symbol>
<symbol id="icon-openid" viewBox="0 0 28 32">
<path d="M16.969 27l-4.25 2c-7.188-0.644-12.719-4.469-12.719-9.113 0-4.469 5.156-8.188 11.981-9.019v2.688c-4.469 0.781-7.75 3.313-7.75 6.331 0 3.188 3.656 5.831 8.481 6.438v-21.25l4.25-2.075v24zM28 18.188l-8.206-1.781 2.3-1.294c-1.219-0.719-2.719-1.25-4.375-1.55v-2.688c2.887 0.344 5.481 1.219 7.519 2.456l2.188-1.238 0.575 6.094z"></path>
</symbol>
<symbol id="icon-patreon" viewBox="0 0 32 32">
<path d="M30.6 12.512c0 5.781-4.7 10.481-10.481 10.481-5.794 0-10.512-4.7-10.512-10.481 0-5.794 4.719-10.512 10.512-10.512 5.781 0 10.481 4.713 10.481 10.512zM1.4 30h5.131v-28h-5.131v28z"></path>
</symbol>
<symbol id="icon-paypal" viewBox="0 0 24 32">
<path d="M6.963 18.494c-0.219 1.2-1.088 6.794-1.344 8.375-0.019 0.113-0.063 0.156-0.188 0.156h-4.662c-0.475 0-0.819-0.413-0.756-0.869l3.663-23.244c0.094-0.6 0.631-1.056 1.25-1.056 9.519 0 10.319-0.231 12.75 0.712 3.756 1.456 4.1 4.969 2.75 8.769-1.344 3.912-4.531 5.594-8.756 5.644-2.713 0.044-4.344-0.438-4.706 1.512zM22.319 9.5c-0.113-0.081-0.156-0.113-0.188 0.081-0.125 0.713-0.319 1.406-0.55 2.1-2.494 7.112-9.406 6.494-12.781 6.494-0.381 0-0.631 0.206-0.681 0.587-1.412 8.775-1.694 10.606-1.694 10.606-0.063 0.444 0.219 0.806 0.662 0.806h3.969c0.537 0 0.981-0.394 1.088-0.931 0.044-0.337-0.069 0.381 0.9-5.706 0.287-1.375 0.894-1.231 1.831-1.231 4.437 0 7.9-1.8 8.931-7.019 0.406-2.175 0.288-4.463-1.488-5.787z"></path>
</symbol>
<symbol id="icon-pinterest" viewBox="0 0 24 32">
<path d="M12.75 0.406c-6.412 0-12.75 4.275-12.75 11.194 0 4.4 2.475 6.9 3.975 6.9 0.619 0 0.975-1.725 0.975-2.212 0-0.581-1.481-1.819-1.481-4.238 0-5.025 3.825-8.588 8.775-8.588 4.256 0 7.406 2.419 7.406 6.862 0 3.319-1.331 9.544-5.644 9.544-1.556 0-2.887-1.125-2.887-2.738 0-2.363 1.65-4.65 1.65-7.088 0-4.138-5.869-3.388-5.869 1.613 0 1.050 0.131 2.213 0.6 3.169-0.862 3.712-2.625 9.244-2.625 13.069 0 1.181 0.169 2.344 0.281 3.525 0.213 0.238 0.106 0.212 0.431 0.094 3.15-4.313 3.037-5.156 4.463-10.8 0.769 1.462 2.756 2.25 4.331 2.25 6.637 0 9.619-6.469 9.619-12.3 0-6.206-5.363-10.256-11.25-10.256z"></path>
</symbol>
<symbol id="icon-quora" viewBox="0 0 28 32">
<path d="M27.531 24.169h-1.831c-0.094 0.844-0.656 1.925-2.063 1.925-1.281 0-2.206-0.887-3.094-2.238 2.762-2.137 4.669-5.469 4.669-9.563 0.006-7.344-6.038-12.294-12.4-12.294-6.231 0-12.356 4.981-12.356 12.294 0 8.381 8.206 13.85 15.562 11.813 1.231 2.1 2.856 3.894 5.95 3.894 5.113 0 5.675-4.706 5.563-5.831zM18.563 20.575c-1.219-1.825-2.731-3.262-5.719-3.262-1.906 0-3.394 0.625-4.313 1.425l0.762 1.519c0.387-0.188 0.813-0.25 1.238-0.25 2.219 0 3.356 1.925 4.325 3.831-0.625 0.188-1.294 0.262-2.044 0.262-4.688 0-6.719-3.313-6.719-9.794 0-6.525 2.031-9.869 6.719-9.869 4.762 0 6.794 3.344 6.794 9.856 0.006 2.612-0.337 4.725-1.044 6.281z"></path>
</symbol>
<symbol id="icon-reddit" viewBox="0 0 32 32">
<path d="M27.519 12.719c-0.938 0-1.762 0.387-2.369 0.994-2.231-1.544-5.238-2.537-8.569-2.644l1.731-7.8 5.512 1.237c0 1.35 1.1 2.45 2.45 2.45 1.375 0 2.481-1.131 2.481-2.481s-1.1-2.481-2.481-2.481c-0.962 0-1.794 0.581-2.206 1.375l-6.087-1.35c-0.306-0.081-0.606 0.138-0.688 0.444l-1.9 8.6c-3.306 0.137-6.281 1.131-8.519 2.675-0.606-0.631-1.463-1.019-2.4-1.019-3.475 0-4.612 4.663-1.431 6.256-0.112 0.494-0.163 1.019-0.163 1.544 0 5.238 5.9 9.481 13.144 9.481 7.275 0 13.175-4.244 13.175-9.481 0-0.525-0.056-1.075-0.194-1.569 3.119-1.6 1.969-6.231-1.488-6.231zM8.088 19.306c0-1.375 1.1-2.481 2.481-2.481 1.35 0 2.45 1.1 2.45 2.481 0 1.35-1.1 2.45-2.45 2.45-1.375 0.006-2.481-1.1-2.481-2.45zM21.481 25.15c-2.275 2.275-8.694 2.275-10.969 0-0.25-0.219-0.25-0.606 0-0.856 0.219-0.219 0.606-0.219 0.825 0 1.738 1.781 7.5 1.813 9.313 0 0.219-0.219 0.606-0.219 0.825 0 0.256 0.25 0.256 0.637 0.006 0.856zM21.431 21.762c-1.35 0-2.45-1.1-2.45-2.45 0-1.375 1.1-2.481 2.45-2.481 1.375 0 2.481 1.1 2.481 2.481-0.006 1.344-1.106 2.45-2.481 2.45z"></path>
</symbol>
<symbol id="icon-renren" viewBox="0 0 32 32">
<path d="M13.375 10.569c0 6.9-3.813 12.838-9.225 15.463-2.275-2.706-3.65-6.175-3.65-9.994 0-7.669 5.569-14.025 12.875-15.256v9.787zM15.938 31.5c-2.681 0-5.206-0.688-7.406-1.9 3.575-2.256 6.463-5.669 7.406-9.663 0.969 3.994 3.856 7.406 7.425 9.669-2.194 1.206-4.719 1.894-7.425 1.894zM27.85 26.031c-5.413-2.625-9.225-8.556-9.225-15.463v-9.787c7.306 1.231 12.875 7.588 12.875 15.256 0 3.819-1.375 7.288-3.65 9.994z"></path>
</symbol>
<symbol id="icon-skype" viewBox="0 0 28 32">
<path d="M26.544 18.738c0.181-0.875 0.294-1.806 0.294-2.738 0-7.094-5.744-12.831-12.831-12.831-0.931 0-1.856 0.106-2.738 0.294-1.188-0.919-2.662-1.462-4.269-1.462-3.862 0-7 3.137-7 7 0 1.606 0.544 3.081 1.456 4.262-0.181 0.875-0.294 1.806-0.294 2.738 0 7.094 5.744 12.831 12.831 12.831 0.931 0 1.856-0.106 2.738-0.294 1.188 0.913 2.663 1.456 4.262 1.456 3.863 0 7-3.137 7-7 0.006-1.6-0.538-3.075-1.45-4.256zM14.381 24.456c-4.1 0-7.531-1.825-7.531-4.063 0-1 0.563-1.913 1.844-1.913 1.95 0 2.131 2.806 5.506 2.806 1.606 0 2.644-0.712 2.644-1.644 0-1.169-1-1.35-2.625-1.75-3.906-0.962-7.362-1.375-7.362-5.45 0-3.7 3.663-5.069 6.819-5.069 3.444 0 6.925 1.369 6.925 3.463 0 1.056-0.712 1.988-1.894 1.988-1.769 0-1.825-2.094-4.688-2.094-1.606 0-2.625 0.438-2.625 1.406 0 1.238 1.3 1.363 4.319 2.063 2.588 0.581 5.669 1.675 5.669 4.85 0 3.694-3.569 5.406-7 5.406z"></path>
</symbol>
<symbol id="icon-slack" viewBox="0 0 28 32">
<path d="M27.887 16.9c-0.387-1.188-1.681-1.819-2.875-1.431l-2.837 0.944-1.894-5.625 2.837-0.944c1.194-0.387 1.819-1.675 1.438-2.869-0.387-1.188-1.681-1.819-2.875-1.431l-2.837 0.944-0.981-2.938c-0.387-1.188-1.681-1.819-2.875-1.431s-1.819 1.675-1.438 2.869l0.981 2.938-5.838 1.95-0.981-2.938c-0.388-1.188-1.681-1.819-2.875-1.431s-1.819 1.675-1.438 2.869l0.981 2.938-2.831 0.938c-1.194 0.387-1.819 1.675-1.438 2.869 0.313 0.906 1.194 1.5 2.1 1.537 0.425 0.063 0.75-0.1 3.606-1.050l1.894 5.625-2.837 0.944c-1.188 0.387-1.819 1.681-1.438 2.869 0.313 0.906 1.194 1.5 2.1 1.538 0.425 0.063 0.75-0.1 3.606-1.050l0.981 2.938c0.369 1.056 1.544 1.813 2.875 1.431 1.194-0.387 1.819-1.675 1.438-2.869l-0.981-2.938 5.85-1.956 0.981 2.938c0.369 1.056 1.544 1.813 2.875 1.431 1.194-0.387 1.819-1.675 1.438-2.869l-0.981-2.938 2.837-0.944c1.188-0.375 1.819-1.669 1.431-2.856zM12.006 19.85l-1.894-5.637 5.844-1.956 1.894 5.637-5.844 1.956z"></path>
</symbol>
<symbol id="icon-slideshare" viewBox="0 0 32 32">
<path d="M15.589 13.215c0 1.982-1.732 3.607-3.857 3.607s-3.857-1.625-3.857-3.607c0-2 1.732-3.607 3.857-3.607s3.857 1.607 3.857 3.607zM31.483 16.34c-1.143 1.411-3.322 3.143-6.643 4.5 3.518 11.983-8.59 13.893-8.393 7.75 0 0.107-0.018-3.304-0.018-5.84-0.268-0.054-0.536-0.125-0.857-0.196 0 2.554-0.018 6.143-0.018 6.036 0.196 6.143-11.911 4.232-8.393-7.75-3.322-1.357-5.5-3.089-6.643-4.5-0.571-0.857 0.054-1.768 1-1.107 0.125 0.089 0.268 0.179 0.393 0.268v-12.393c0-1.714 1.286-3.107 2.875-3.107h22.447c1.589 0 2.875 1.393 2.875 3.107v12.393l0.375-0.268c0.946-0.661 1.571 0.25 1 1.107zM28.572 4.518c0-2.054-0.661-2.857-2.554-2.857h-19.858c-1.982 0-2.536 0.679-2.536 2.857v12.018c4.232 2.214 7.857 1.822 9.84 1.75 0.839-0.018 1.375 0.143 1.697 0.482 0.106 0.105 0.626 0.59 1.268 1.071 0.071-0.982 0.625-1.607 2.107-1.554 2.018 0.089 5.732 0.482 10.036-1.857v-11.911zM20.697 9.607c-2.125 0-3.857 1.607-3.857 3.607 0 1.982 1.732 3.607 3.857 3.607 2.143 0 3.857-1.625 3.857-3.607 0-2-1.714-3.607-3.857-3.607z"></path>
</symbol>
<symbol id="icon-snapchat" viewBox="0 0 32 32">
<path d="M31.928 24.542c-0.326 0.76-1.702 1.318-4.21 1.707-0.129 0.174-0.236 0.918-0.407 1.497-0.102 0.348-0.351 0.554-0.758 0.554l-0.019-0c-0.587 0-1.2-0.27-2.428-0.27-1.658 0-2.229 0.378-3.516 1.287-1.364 0.965-2.673 1.798-4.627 1.712-1.978 0.146-3.627-1.057-4.554-1.713-1.295-0.915-1.864-1.286-3.515-1.286-1.179 0-1.921 0.295-2.428 0.295-0.505 0-0.701-0.308-0.776-0.565-0.169-0.574-0.275-1.329-0.408-1.508-1.292-0.201-4.207-0.709-4.281-2.009-0.001-0.011-0.001-0.024-0.001-0.037 0-0.329 0.239-0.601 0.552-0.655l0.004-0.001c4.349-0.716 6.308-5.181 6.389-5.371 0.005-0.011 0.010-0.021 0.015-0.032 0.232-0.471 0.284-0.866 0.154-1.172-0.316-0.744-1.679-1.010-2.253-1.237-1.482-0.585-1.688-1.258-1.601-1.719 0.152-0.802 1.358-1.296 2.063-0.966 0.557 0.261 1.053 0.394 1.472 0.394 0.314 0 0.513-0.075 0.623-0.136-0.128-2.246-0.444-5.456 0.355-7.248 2.111-4.732 6.585-5.1 7.905-5.1 0.059 0 0.571-0.006 0.632-0.006 3.259 0 6.391 1.674 7.92 5.103 0.799 1.791 0.484 4.987 0.356 7.251 0.099 0.055 0.272 0.121 0.537 0.134 0.4-0.018 0.863-0.149 1.379-0.391 0.38-0.178 0.9-0.154 1.28 0.004l0.002 0.001c0.592 0.212 0.965 0.638 0.974 1.117 0.012 0.609-0.533 1.135-1.617 1.564-0.132 0.052-0.293 0.103-0.465 0.158-0.612 0.194-1.538 0.488-1.788 1.079-0.13 0.306-0.078 0.701 0.154 1.172 0.005 0.011 0.010 0.021 0.015 0.032 0.081 0.189 2.038 4.654 6.389 5.371 0.402 0.066 0.698 0.492 0.483 0.991z"></path>
</symbol>
<symbol id="icon-soundcloud" viewBox="0 0 40 32">
<path d="M6.963 16.019l0.362 4.063-0.362 4.269c-0.019 0.156-0.138 0.275-0.275 0.275s-0.263-0.119-0.263-0.275l-0.35-4.269 0.35-4.063c0-0.137 0.119-0.262 0.263-0.262 0.138 0 0.256 0.125 0.275 0.262zM8.3 13.169c-0.175 0-0.294 0.137-0.313 0.313l-0.313 6.6 0.313 4.269c0.019 0.175 0.137 0.313 0.313 0.313 0.156 0 0.294-0.137 0.294-0.313l0.363-4.269-0.363-6.6c0-0.175-0.137-0.313-0.294-0.313zM9.894 11.662c-0.194 0-0.331 0.137-0.35 0.331l-0.275 8.125 0.275 4.238c0.019 0.194 0.156 0.331 0.35 0.331 0.175 0 0.331-0.137 0.331-0.331l0.331-4.238-0.331-8.125c0-0.194-0.156-0.331-0.331-0.331zM0.45 17.7c-0.087 0-0.138 0.069-0.156 0.156l-0.294 2.225 0.294 2.188c0.019 0.087 0.069 0.156 0.156 0.156s0.138-0.069 0.156-0.156l0.35-2.188-0.35-2.225c-0.019-0.087-0.069-0.156-0.156-0.156zM1.925 16.331c-0.087 0-0.156 0.069-0.156 0.156l-0.4 3.594 0.4 3.506c0 0.106 0.069 0.175 0.156 0.175s0.156-0.069 0.175-0.156l0.45-3.525-0.45-3.594c-0.019-0.087-0.087-0.156-0.175-0.156zM3.506 15.619c-0.106 0-0.194 0.088-0.206 0.206l-0.362 4.256 0.362 4.113c0.019 0.106 0.106 0.194 0.206 0.194 0.106 0 0.194-0.087 0.194-0.194l0.431-4.113-0.431-4.256c0-0.119-0.087-0.206-0.194-0.206zM5.088 15.481c-0.119 0-0.225 0.088-0.225 0.225l-0.362 4.375 0.362 4.238c0 0.137 0.106 0.225 0.225 0.225s0.225-0.087 0.244-0.225l0.4-4.238-0.4-4.375c-0.019-0.137-0.125-0.225-0.244-0.225zM20.175 8.55c-0.069-0.050-0.175-0.088-0.262-0.088-0.137 0-0.262 0.050-0.35 0.119-0.119 0.106-0.194 0.262-0.206 0.419v0.050l-0.206 11.044 0.106 2.031 0.106 1.981c0.019 0.294 0.262 0.538 0.556 0.538s0.538-0.244 0.538-0.538l0.244-4.012-0.244-11.094c-0.025-0.188-0.125-0.363-0.281-0.45zM18.506 9.506c-0.087-0.050-0.175-0.088-0.275-0.088s-0.194 0.037-0.275 0.088c-0.137 0.088-0.225 0.244-0.225 0.419l-0.019 0.106-0.175 10.050s0 0.019 0.194 4.1v0.019c0 0.106 0.038 0.206 0.106 0.294 0.106 0.119 0.244 0.194 0.4 0.194 0.137 0 0.262-0.069 0.35-0.156 0.106-0.087 0.156-0.206 0.156-0.35l0.019-0.419 0.194-3.663-0.206-10.175c-0.019-0.175-0.106-0.331-0.244-0.419zM11.544 10.912c-0.194 0-0.363 0.175-0.363 0.381l-0.275 8.787 0.275 4.2c0.019 0.206 0.175 0.363 0.363 0.363 0.206 0 0.363-0.156 0.381-0.363l0.313-4.2-0.313-8.787c-0.012-0.206-0.169-0.381-0.381-0.381zM35.087 14.838c-0.675 0-1.319 0.137-1.913 0.381-0.4-4.425-4.113-7.9-8.644-7.9-1.113 0-2.188 0.206-3.144 0.588-0.381 0.137-0.488 0.275-0.488 0.575v15.606c0 0.313 0.244 0.538 0.538 0.575h13.644c2.706 0 4.913-2.188 4.913-4.894 0.006-2.725-2.2-4.931-4.906-4.931zM16.544 11.069c-0.262 0-0.469 0.206-0.488 0.488l-0.206 8.544 0.206 4.1c0.019 0.262 0.225 0.469 0.488 0.469s0.469-0.206 0.469-0.469l0.244-4.1-0.244-8.544c-0.019-0.281-0.206-0.488-0.469-0.488zM13.194 10.581c-0.206 0-0.4 0.194-0.4 0.419l-0.244 9.081 0.244 4.181c0.019 0.225 0.194 0.4 0.4 0.4 0.225 0 0.4-0.175 0.419-0.4l0.275-4.181-0.275-9.081c-0.019-0.225-0.194-0.419-0.419-0.419zM14.863 10.794c-0.244 0-0.431 0.194-0.431 0.431l-0.244 8.856 0.244 4.15c0.019 0.244 0.194 0.431 0.431 0.431s0.431-0.194 0.431-0.431l0.262-4.15-0.262-8.856c0-0.244-0.188-0.431-0.431-0.431z"></path>
</symbol>
<symbol id="icon-spotify" viewBox="0 0 31 32">
<path d="M15.5 0.5c-8.556 0-15.5 6.944-15.5 15.5s6.944 15.5 15.5 15.5 15.5-6.944 15.5-15.5-6.944-15.5-15.5-15.5zM21.794 23.306c-0.262 0-0.425-0.081-0.669-0.225-3.9-2.35-8.438-2.45-12.919-1.531-0.244 0.063-0.563 0.163-0.744 0.163-0.606 0-0.987-0.481-0.987-0.988 0-0.644 0.381-0.95 0.85-1.050 5.119-1.131 10.35-1.031 14.813 1.637 0.381 0.244 0.606 0.462 0.606 1.031s-0.444 0.962-0.95 0.962zM23.475 19.206c-0.325 0-0.544-0.144-0.769-0.262-3.906-2.313-9.731-3.244-14.912-1.837-0.3 0.081-0.463 0.163-0.744 0.163-0.669 0-1.213-0.544-1.213-1.212s0.325-1.113 0.969-1.294c1.738-0.488 3.513-0.85 6.112-0.85 4.056 0 7.975 1.006 11.063 2.844 0.506 0.3 0.706 0.688 0.706 1.231-0.006 0.675-0.531 1.219-1.212 1.219zM25.413 14.444c-0.325 0-0.525-0.081-0.806-0.244-4.45-2.656-12.406-3.294-17.556-1.856-0.225 0.063-0.506 0.162-0.806 0.162-0.825 0-1.456-0.644-1.456-1.475 0-0.85 0.525-1.331 1.087-1.494 2.2-0.644 4.662-0.95 7.344-0.95 4.563 0 9.344 0.95 12.838 2.987 0.488 0.281 0.806 0.669 0.806 1.412 0 0.85-0.688 1.456-1.45 1.456z"></path>
</symbol>
<symbol id="icon-stackexchange" viewBox="0 0 28 32">
<path d="M2.719 20.175h22.569v1.2c0 2.063-1.606 3.719-3.575 3.719h-1.038l-4.744 4.906v-4.906h-9.644c-1.969 0-3.575-1.656-3.575-3.719v-1.2zM2.719 18.881h22.569v-4.65h-22.569v4.65zM2.719 12.9h22.569v-4.65h-22.569v4.65zM21.712 2h-15.425c-1.969 0-3.575 1.656-3.575 3.7v1.219h22.569v-1.219c0-2.044-1.6-3.7-3.569-3.7z"></path>
</symbol>
<symbol id="icon-stackoverflow" viewBox="0 0 24 32">
<path d="M18.356 18.75l-11.325-5.281 1.044-2.281 11.331 5.294-1.050 2.269zM21.356 14l-9.594-8.019-1.594 1.925 9.594 8.019 1.594-1.925zM23.831 12.019l-7.456-10.019-2 1.5 7.456 10.019 2-1.5zM18.169 19.438l-12.231-2.581-0.513 2.456 12.231 2.563 0.512-2.438zM20.144 27.5h-17.475v-7.5h-2.5v10h22.469v-10h-2.5v7.5zM17.656 22.5h-12.5v2.481h12.5v-2.481z"></path>
</symbol>
<symbol id="icon-steam" viewBox="0 0 28 32">
<path d="M24.719 11.094c0 2.113-1.719 3.813-3.813 3.813-2.113 0-3.813-1.706-3.813-3.813s1.706-3.813 3.813-3.813c2.094 0 3.813 1.7 3.813 3.813zM28 11.106c0 3.938-3.188 7.113-7.106 7.113l-6.831 4.988c-0.25 2.688-2.531 4.8-5.281 4.8-2.531 0-4.669-1.8-5.188-4.188l-3.594-1.444v-6.706l6.075 2.456c0.944-0.575 2.013-0.831 3.25-0.719l4.438-6.356c0.031-3.894 3.219-7.050 7.125-7.050 3.925 0 7.113 3.188 7.113 7.106zM12.688 22.688c0-2.169-1.738-3.906-3.906-3.906-0.281 0-0.563 0.031-0.844 0.094l1.625 0.656c1.594 0.637 2.375 2.438 1.731 4.031-0.637 1.594-2.45 2.375-4.044 1.719-0.638-0.25-1.281-0.519-1.919-0.762 0.656 1.231 1.95 2.075 3.45 2.075 2.169 0 3.906-1.738 3.906-3.906zM25.656 11.106c0-2.625-2.144-4.763-4.762-4.763-2.644 0-4.781 2.138-4.781 4.763 0 2.637 2.144 4.762 4.781 4.762 2.619 0.006 4.762-2.119 4.762-4.762z"></path>
</symbol>
<symbol id="icon-stumbleupon" viewBox="0 0 32 32">
<path d="M31.431 16.625v4.356c0 3.881-3.144 7.025-7.025 7.025-3.863 0-7.025-3.113-7.025-6.956v-4.387l2.144 1 3.194-0.95v4.412c0 0.919 0.75 1.656 1.669 1.656s1.675-0.738 1.675-1.656v-4.5h5.369zM17.387 12.988l2.144 1 3.194-0.95v-2.225c0-3.781-3.194-6.813-7.006-6.813-3.8 0-7.006 3.013-7.006 6.763v10.15c0 0.931-0.75 1.669-1.669 1.669s-1.669-0.738-1.669-1.669v-4.288h-5.375v4.356c0 3.875 3.144 7.019 7.025 7.019 3.85 0 7.025-3.094 7.025-6.925v-10.019c0-0.919 0.75-1.669 1.669-1.669s1.669 0.75 1.669 1.669v1.931z"></path>
</symbol>
<symbol id="icon-telegram" viewBox="0 0 28 32">
<path d="M27.919 6.162l-4.225 19.925c-0.319 1.406-1.15 1.756-2.331 1.094l-6.438-4.744-3.106 2.988c-0.344 0.344-0.631 0.631-1.294 0.631l0.463-6.556 11.931-10.781c0.519-0.463-0.113-0.719-0.806-0.256l-14.75 9.287-6.35-1.988c-1.381-0.431-1.406-1.381 0.288-2.044l24.837-9.569c1.15-0.431 2.156 0.256 1.781 2.013z"></path>
</symbol>
<symbol id="icon-trello" viewBox="0 0 28 32">
<path d="M24.5 2h-21c-1.931 0-3.5 1.569-3.5 3.5v21c0 1.931 1.569 3.5 3.5 3.5h21c1.931 0 3.5-1.569 3.5-3.5v-21c0-1.931-1.569-3.5-3.5-3.5zM12.181 23.212c0 0.925-0.75 1.681-1.681 1.681h-5.181c-0.925 0-1.681-0.75-1.681-1.681v-15.894c0-0.925 0.75-1.681 1.681-1.681h5.181c0.925 0 1.681 0.75 1.681 1.681v15.894zM24.363 16.212c0 0.925-0.75 1.681-1.681 1.681h-5.181c-0.925 0-1.681-0.75-1.681-1.681v-8.894c0-0.925 0.75-1.681 1.681-1.681h5.181c0.925 0 1.681 0.75 1.681 1.681v8.894z"></path>
</symbol>
<symbol id="icon-tripadvisor" viewBox="0 0 36 32">
<path d="M10.4 17.533c0 0.827-0.671 1.498-1.498 1.498s-1.498-0.671-1.498-1.498 0.671-1.498 1.498-1.498 1.498 0.671 1.498 1.498zM26.96 16.035c-0.827 0-1.497 0.67-1.497 1.497s0.67 1.497 1.497 1.497c0.827 0 1.497-0.67 1.497-1.497s-0.67-1.497-1.497-1.497zM32.547 24.753c-3.917 3.069-9.58 2.382-12.649-1.535l-1.936 2.895-1.918-2.871c-3.017 3.774-8.476 4.493-12.368 1.628-4.004-2.947-4.86-8.582-1.913-12.586-0.41-1.363-1.012-2.551-1.787-3.604l0.023 0.032 5.643-0.003c3.362-2.122 7.452-3.382 11.837-3.382 0.169 0 0.337 0.002 0.505 0.006l-0.025-0c0.116-0.002 0.253-0.003 0.39-0.003 4.307 0 8.324 1.243 11.71 3.391l-0.089-0.053 6.014 0.005c-0.759 1.029-1.365 2.228-1.751 3.521l-0.021 0.082c2.925 3.922 2.185 9.461-1.666 12.478zM16.21 17.61c-0-3.972-3.221-7.192-7.193-7.192s-7.192 3.221-7.192 7.193c0 3.972 3.221 7.192 7.193 7.192 3.97-0.005 7.186-3.221 7.192-7.191v-0.003zM17.997 16.957c0.34-4.59 4.094-8.18 8.695-8.314-2.479-1.1-5.371-1.741-8.412-1.741-0.113 0-0.225 0.001-0.338 0.003l0.017-0c-0.064-0.001-0.14-0.001-0.216-0.001-3.083 0-6.020 0.627-8.69 1.759l0.146-0.055c4.646 0.099 8.456 3.714 8.798 8.349zM33.729 15.159c-1.374-3.727-5.51-5.634-9.237-4.26s-5.634 5.51-4.26 9.237v0.002c1.377 3.725 5.512 5.631 9.239 4.257 3.726-1.375 5.632-5.51 4.258-9.236zM13.351 17.532v0.007c-0.004 2.458-1.999 4.448-4.457 4.444s-4.448-1.999-4.444-4.457c0.004-2.458 1.999-4.448 4.457-4.444 2.454 0.007 4.44 1.996 4.444 4.45zM11.819 17.532v-0.005c-0.003-1.611-1.312-2.915-2.924-2.912s-2.915 1.312-2.912 2.924c0.003 1.611 1.312 2.915 2.924 2.912 1.608-0.007 2.909-1.311 2.912-2.918zM31.408 17.532v0.003c-0.001 2.458-1.995 4.45-4.453 4.448s-4.45-1.995-4.448-4.453c0.001-2.458 1.995-4.45 4.453-4.448 2.456 0.004 4.445 1.994 4.448 4.45zM29.877 17.532c-0.001-1.611-1.307-2.917-2.919-2.917s-2.917 1.307-2.917 2.919c0.001 1.611 1.307 2.917 2.919 2.917 1.61-0.003 2.915-1.308 2.917-2.918v-0.001z"></path>
</symbol>
<symbol id="icon-tumblr" viewBox="0 0 20 32">
<path d="M19.363 30.019c-0.85 0.906-3.125 1.981-6.088 1.981-7.55 0-9.188-5.55-9.188-8.788v-9h-2.969c-0.344 0-0.625-0.281-0.625-0.625v-4.25c0-0.45 0.281-0.85 0.706-1 3.875-1.362 5.094-4.75 5.269-7.319 0.050-0.688 0.406-1.019 1.006-1.019h4.431c0.344 0 0.625 0.281 0.625 0.625v7.2h5.188c0.344 0 0.625 0.275 0.625 0.619v5.106c0 0.344-0.281 0.625-0.625 0.625h-5.213v8.325c0 2.137 1.481 3.35 4.25 2.238 0.3-0.119 0.563-0.2 0.794-0.137 0.219 0.056 0.363 0.212 0.462 0.494l1.375 4.019c0.113 0.313 0.206 0.663-0.025 0.906z"></path>
</symbol>
<symbol id="icon-twitch" viewBox="0 0 28 32">
<path d="M2.506 2l-1.881 4.806v19.644h6.688v3.55h3.762l3.55-3.55h5.438l7.313-7.313v-17.137h-24.869zM24.869 17.881l-4.181 4.181h-6.688l-3.55 3.55v-3.55h-5.644v-17.556h20.063v13.375zM20.688 9.313v7.306h-2.506v-7.306h2.506zM14 9.313v7.306h-2.506v-7.306h2.506z"></path>
</symbol>
<symbol id="icon-twitter" viewBox="0 0 32 32">
<path d="M28.711 9.482c0.020 0.284 0.020 0.569 0.020 0.853 0 8.67-6.599 18.66-18.66 18.66-3.716 0-7.168-1.076-10.071-2.944 0.528 0.061 1.036 0.081 1.584 0.081 3.066 0 5.888-1.035 8.142-2.802-2.883-0.061-5.3-1.949-6.132-4.548 0.406 0.061 0.812 0.102 1.239 0.102 0.589 0 1.178-0.081 1.726-0.223-3.005-0.609-5.259-3.249-5.259-6.437v-0.081c0.873 0.487 1.888 0.792 2.964 0.832-1.766-1.178-2.924-3.188-2.924-5.462 0-1.218 0.325-2.335 0.893-3.31 3.228 3.98 8.081 6.579 13.523 6.863-0.101-0.487-0.162-0.995-0.162-1.502 0-3.614 2.924-6.558 6.558-6.558 1.888 0 3.594 0.792 4.792 2.071 1.482-0.284 2.904-0.832 4.162-1.584-0.487 1.523-1.523 2.802-2.883 3.614 1.32-0.142 2.599-0.508 3.777-1.015-0.893 1.299-2.010 2.457-3.289 3.391z"></path>
</symbol>
<symbol id="icon-vimeo" viewBox="0 0 28 32">
<path d="M27.988 9.6c-0.125 2.725-2.025 6.456-5.713 11.194-3.806 4.95-7.025 7.425-9.662 7.425-1.631 0-3.013-1.506-4.144-4.519-2.2-8.075-3.138-12.806-4.956-12.806-0.212 0-0.944 0.444-2.2 1.319l-1.313-1.7c3.225-2.831 6.306-5.981 8.238-6.156 2.181-0.213 3.519 1.281 4.025 4.469 1.794 11.344 2.588 13.056 5.85 7.919 1.169-1.85 1.8-3.256 1.887-4.225 0.3-2.869-2.238-2.675-3.956-1.938 1.375-4.506 4.006-6.694 7.887-6.569 2.863 0.075 4.219 1.944 4.056 5.588z"></path>
</symbol>
<symbol id="icon-vk" viewBox="0 0 36 32">
<path d="M34.063 7.356c0.231-0.781 0-1.356-1.112-1.356h-3.681c-0.938 0-1.369 0.494-1.6 1.044 0 0-1.875 4.569-4.525 7.531-0.856 0.856-1.25 1.131-1.719 1.131-0.231 0-0.587-0.275-0.587-1.056v-7.294c0-0.938-0.262-1.356-1.038-1.356h-5.787c-0.588 0-0.938 0.438-0.938 0.844 0 0.888 1.325 1.094 1.463 3.594v5.425c0 1.188-0.213 1.406-0.681 1.406-1.25 0-4.287-4.588-6.088-9.838-0.362-1.019-0.719-1.431-1.662-1.431h-3.681c-1.050 0-1.262 0.494-1.262 1.044 0 0.975 1.25 5.819 5.819 12.219 3.044 4.369 7.331 6.738 11.231 6.738 2.344 0 2.631-0.525 2.631-1.431 0-4.175-0.212-4.569 0.962-4.569 0.544 0 1.481 0.275 3.669 2.381 2.5 2.5 2.913 3.619 4.313 3.619h3.681c1.050 0 1.581-0.525 1.275-1.563-0.7-2.181-5.431-6.669-5.644-6.969-0.544-0.7-0.387-1.012 0-1.637 0.006-0.006 4.5-6.331 4.963-8.475z"></path>
</symbol>
<symbol id="icon-whatsapp" viewBox="0 0 28 32">
<path d="M23.806 6.069c-2.619-2.625-6.106-4.069-9.813-4.069-7.65 0-13.875 6.225-13.875 13.875 0 2.444 0.637 4.831 1.85 6.938l-1.969 7.188 7.356-1.931c2.025 1.106 4.306 1.688 6.631 1.688h0.006c7.644 0 14.006-6.225 14.006-13.875 0-3.706-1.575-7.188-4.194-9.813zM13.994 27.419c-2.075 0-4.106-0.556-5.875-1.606l-0.419-0.25-4.362 1.144 1.162-4.256-0.275-0.438c-1.156-1.837-1.763-3.956-1.763-6.137 0-6.356 5.175-11.531 11.538-11.531 3.081 0 5.975 1.2 8.15 3.381s3.512 5.075 3.506 8.156c0 6.362-5.306 11.537-11.662 11.537zM20.319 18.781c-0.344-0.175-2.050-1.012-2.369-1.125-0.319-0.119-0.55-0.175-0.781 0.175s-0.894 1.125-1.1 1.363c-0.2 0.231-0.406 0.262-0.75 0.087-2.037-1.019-3.375-1.819-4.719-4.125-0.356-0.613 0.356-0.569 1.019-1.894 0.113-0.231 0.056-0.431-0.031-0.606s-0.781-1.881-1.069-2.575c-0.281-0.675-0.569-0.581-0.781-0.594-0.2-0.012-0.431-0.012-0.662-0.012s-0.606 0.088-0.925 0.431c-0.319 0.35-1.213 1.188-1.213 2.894s1.244 3.356 1.412 3.587c0.175 0.231 2.444 3.731 5.925 5.238 2.2 0.95 3.063 1.031 4.162 0.869 0.669-0.1 2.050-0.837 2.337-1.65s0.288-1.506 0.2-1.65c-0.081-0.156-0.313-0.244-0.656-0.413z"></path>
</symbol>
<symbol id="icon-wikipedia" viewBox="0 0 40 32">
<path d="M40 3.2l-0.019 0.763c-1.756 0.050-2.813 0.987-3.487 2.519-1.563 3.612-6.456 15-9.706 22.413h-0.85l-5.119-12.069c-2.031 3.975-4.269 8.125-6.2 12.069-0.019 0.019-0.938 0-0.938-0.019-2.931-6.856-6.006-13.662-8.944-20.538-0.713-1.669-3.087-4.375-4.725-4.356 0-0.194-0.019-0.625-0.019-0.888h10.119v0.869c-1.2 0.069-3.3 0.831-2.706 2.137 1.369 3.106 6.475 15.019 7.85 18.038 0.938-1.856 3.613-6.825 4.706-8.925-0.869-1.769-3.663-8.369-4.55-10-0.606-1.112-2.256-1.213-3.488-1.231v-0.869l8.906 0.019v0.819c-1.212 0.038-2.381 0.487-1.837 1.631 1.181 2.5 1.913 4.256 3.006 6.544 0.35-0.675 2.169-4.338 3.006-6.3 0.556-1.288-0.244-1.788-2.413-1.837 0.019-0.225 0-0.644 0.019-0.85 2.775-0.019 6.944-0.019 7.694-0.038v0.85c-1.406 0.050-2.863 0.8-3.631 1.981l-3.7 7.675c0.4 1.006 3.956 8.925 4.325 9.794l7.65-17.663c-0.538-1.444-2.275-1.756-2.95-1.769v-0.869l7.987 0.069 0.013 0.031z"></path>
</symbol>
<symbol id="icon-wordpress" viewBox="0 0 32 32">
<path d="M16 0.5c-8.544 0-15.5 6.95-15.5 15.5 0 8.544 6.956 15.5 15.5 15.5s15.5-6.956 15.5-15.5c0-8.55-6.956-15.5-15.5-15.5zM2.063 16c0-2.019 0.431-3.938 1.206-5.669l6.65 18.212c-4.65-2.262-7.856-7.031-7.856-12.544zM16 29.938c-1.369 0-2.688-0.2-3.938-0.569l4.181-12.15 4.281 11.738c0.031 0.069 0.063 0.131 0.1 0.194-1.444 0.506-3 0.788-4.625 0.788zM17.919 9.469c0.837-0.044 1.594-0.131 1.594-0.131 0.75-0.088 0.663-1.194-0.087-1.15 0 0-2.256 0.175-3.713 0.175-1.369 0-3.669-0.175-3.669-0.175-0.75-0.044-0.838 1.106-0.088 1.15 0 0 0.713 0.088 1.463 0.131l2.169 5.95-3.050 9.144-5.075-15.094c0.837-0.044 1.594-0.131 1.594-0.131 0.75-0.088 0.662-1.194-0.088-1.15 0 0-2.256 0.175-3.713 0.175-0.263 0-0.569-0.006-0.9-0.019 2.494-3.781 6.775-6.281 11.644-6.281 3.625 0 6.931 1.388 9.412 3.656-0.063-0.006-0.119-0.013-0.181-0.013-1.369 0-2.337 1.194-2.337 2.475 0 1.15 0.663 2.119 1.369 3.269 0.531 0.925 1.15 2.119 1.15 3.844 0 1.194-0.456 2.575-1.063 4.506l-1.387 4.644-5.044-14.975zM23.006 28.044l4.256-12.306c0.794-1.988 1.063-3.575 1.063-4.994 0-0.512-0.031-0.988-0.094-1.431 1.087 1.988 1.706 4.263 1.706 6.688 0 5.144-2.788 9.631-6.931 12.044z"></path>
</symbol>
<symbol id="icon-xing" viewBox="0 0 24 32">
<path d="M10.169 13.125c-0.113 0.206-1.575 2.775-4.381 7.719-0.306 0.519-0.675 0.781-1.106 0.781h-4.069c-0.481 0-0.756-0.469-0.531-0.9l4.313-7.581c0.013 0 0.013-0.006 0-0.019l-2.744-4.725c-0.269-0.487 0.019-0.881 0.531-0.881h4.069c0.456 0 0.831 0.256 1.125 0.762l2.794 4.844zM23.913 2.881l-9 15.813v0.019l5.725 10.412c0.244 0.444 0.012 0.881-0.531 0.881h-4.075c-0.475 0-0.85-0.25-1.125-0.762l-5.775-10.531c0.206-0.363 3.219-5.675 9.050-15.95 0.288-0.506 0.65-0.763 1.094-0.763h4.106c0.5 0 0.769 0.419 0.531 0.881z"></path>
</symbol>
<symbol id="icon-yahoo" viewBox="0 0 23 32">
<path d="M12.806 18l0.219 12.219c-0.706-0.125-1.306-0.219-1.794-0.219-0.469 0-1.063 0.094-1.794 0.219l0.219-12.219c-3.050-5.269-6.125-10.931-9.656-16.219 0.662 0.175 1.275 0.219 1.844 0.219 0.5 0 1.131-0.044 1.894-0.219 2.275 4.013 4.556 7.7 7.494 12.525 2.075-3.419 5.056-8.006 7.494-12.525 0.613 0.163 1.225 0.219 1.825 0.219 0.637 0 1.288-0.056 1.944-0.219-1.906 2.662-7.306 12.050-9.688 16.219z"></path>
</symbol>
<symbol id="icon-yandex" viewBox="0 0 20 32">
<path d="M8.094 32v-10.381l-6.938-18.619h3.487l5.112 14.356 5.881-17.356h3.206l-7.544 21.738v10.262h-3.206z"></path>
</symbol>
<symbol id="icon-yelp" viewBox="0 0 24 32">
<path d="M8.556 20.5c-0.063 0.019-6.825 2.231-7.237 2.231-0.95-0.056-1.156-1.012-1.244-1.95-0.094-0.887-0.087-1.863 0.019-2.925 0.119-1.175 0.344-2.819 1.512-2.75 0.3 0 4.194 1.619 7.044 2.775 1.069 0.425 1.162 2.238-0.094 2.619zM12.175 13.381c0.113 2.388-1.594 3.031-2.95 0.894l-6.644-10.5c-0.094-0.413 0.019-0.775 0.331-1.087 0.975-1.031 6.213-2.487 7.594-2.131 0.469 0.119 0.756 0.381 0.863 0.788 0.081 0.519 0.719 10.463 0.806 12.037zM12.088 23.681c0 0.288 0.012 7.275-0.106 7.594-0.144 0.375-0.438 0.606-0.894 0.7-0.631 0.106-1.694-0.119-3.188-0.669-1.375-0.506-3.544-1.344-3.081-2.656 0.175-0.431 3.212-3.925 4.831-5.85 0.75-0.95 2.487-0.344 2.438 0.881zM23.35 16.319c-0.35 0.231-6.925 1.762-7.381 1.913l0.019-0.038c-1.131 0.294-2.213-1.156-1.456-2.163 0.231-0.231 4.119-5.775 4.55-6.063 0.325-0.225 0.706-0.238 1.144-0.037 1.15 0.55 3.444 3.944 3.587 5.287-0.006 0.181 0.075 0.731-0.462 1.1zM23.981 24.488c-0.169 1.288-2.781 4.588-3.988 5.063-0.431 0.163-0.806 0.125-1.106-0.125-0.313-0.219-3.863-6.069-4.056-6.394-0.681-1.012 0.425-2.488 1.6-2.075 0 0 6.906 2.231 7.169 2.462 0.325 0.256 0.45 0.613 0.381 1.069z"></path>
</symbol>
<symbol id="icon-youtube" viewBox="0 0 36 32">
<path d="M34.353 7.755c-0.393-1.478-1.549-2.642-3.018-3.037-2.662-0.718-13.336-0.718-13.336-0.718s-10.674 0-13.336 0.718c-1.469 0.395-2.625 1.559-3.018 3.037-0.713 2.679-0.713 8.269-0.713 8.269s0 5.59 0.713 8.269c0.393 1.478 1.549 2.594 3.018 2.989 2.662 0.718 13.336 0.718 13.336 0.718s10.674 0 13.336-0.718c1.469-0.395 2.625-1.511 3.018-2.989 0.713-2.679 0.713-8.269 0.713-8.269s0-5.59-0.713-8.269zM14.509 21.099v-10.15l8.921 5.075-8.921 5.075z"></path>
</symbol>
<symbol id="icon-campaignkit" viewBox="0 0 32 32">
<path d="M25.778 17.333c0.001 0.001 0.001 0.002 0.001 0.003-0-0.001-0.001-0.002-0.001-0.003 0.007 0.008 0.012 0.017 0.019 0.026-0.007-0.008-0.012-0.017-0.019-0.026zM31.529 10.307l-4.455 4.664c-0.543 0.568-0.543 1.49 0 2.058l4.455 4.664c0.174 0.182 0.471 0.053 0.471-0.205v-10.976c0-0.257-0.297-0.386-0.471-0.205zM12.445 17.333c0.007 0.008 0.012 0.017 0.019 0.026-0.007-0.008-0.012-0.017-0.019-0.026 0.001 0.001 0.001 0.002 0.001 0.003-0-0.001-0.001-0.002-0.001-0.003zM12.086 16.662c-0.246-0.723-0.079-1.553 0.504-2.129l5.014-4.947c0.23-0.227 0.23-0.595 0-0.822l-4.393-4.335c-0.58-0.571-1.519-0.571-2.099 0l-10.678 10.536c-0.58 0.572-0.58 1.499 0 2.070l10.678 10.536c0.58 0.572 1.519 0.572 2.099 0l1.792-1.768-2.918-9.141zM25.42 16.662c-0.246-0.723-0.080-1.553 0.504-2.129l5.015-4.947c0.23-0.227 0.23-0.595 0-0.822l-4.393-4.335c-0.579-0.571-1.519-0.571-2.099 0l-10.678 10.536c-0.58 0.572-0.58 1.499 0 2.070l10.678 10.536c0.579 0.572 1.519 0.572 2.099 0l1.792-1.768-2.917-9.141z"></path>
</symbol>

<!-- generic icons -->
<symbol id="icon-star" viewBox="0 0 36 32">
<path d="M16.206 1.113l-4.081 8.275-9.131 1.331c-1.637 0.238-2.294 2.256-1.106 3.412l6.606 6.438-1.563 9.094c-0.281 1.644 1.45 2.875 2.9 2.106l8.169-4.294 8.169 4.294c1.45 0.762 3.181-0.462 2.9-2.106l-1.563-9.094 6.606-6.438c1.188-1.156 0.531-3.175-1.106-3.412l-9.131-1.331-4.081-8.275c-0.731-1.475-2.85-1.494-3.587 0z"></path>
</symbol>
<symbol id="icon-chevron-left" viewBox="0 0 20 32">
<path d="M2.158 14.939l12.147-12.146c0.586-0.586 1.536-0.586 2.121 0l1.417 1.417c0.585 0.585 0.586 1.532 0.003 2.119l-9.627 9.671 9.626 9.672c0.584 0.586 0.582 1.534-0.003 2.119l-1.417 1.417c-0.586 0.586-1.536 0.586-2.121 0l-12.146-12.147c-0.586-0.586-0.586-1.536 0-2.121z"></path>
</symbol>
<symbol id="icon-chevron-right" viewBox="0 0 20 32">
<path d="M17.842 17.061l-12.146 12.146c-0.586 0.586-1.536 0.586-2.121 0l-1.417-1.417c-0.585-0.585-0.586-1.533-0.002-2.119l9.626-9.672-9.626-9.672c-0.583-0.586-0.582-1.534 0.002-2.119l1.417-1.417c0.586-0.586 1.536-0.586 2.121 0l12.146 12.146c0.586 0.586 0.586 1.536 0 2.121z"></path>
</symbol>
<symbol id="icon-chevron-down" viewBox="0 0 28 32">
<path d="M12.939 23.842l-12.146-12.146c-0.586-0.586-0.586-1.536 0-2.121l1.417-1.417c0.585-0.585 1.533-0.586 2.119-0.002l9.672 9.626 9.672-9.626c0.586-0.583 1.534-0.582 2.119 0.002l1.417 1.417c0.586 0.586 0.586 1.536 0 2.121l-12.146 12.146c-0.586 0.586-1.536 0.586-2.121 0z"></path>
</symbol>
</defs>
</svg>
